<svg xmlns="http://www.w3.org/2000/svg" xmlns:xlink="http://www.w3.org/1999/xlink" width="864" height="232pt" viewBox="0 0 647.55 231.82"><g id="graph0" class="graph" transform="scale(1 1) rotate(0) translate(4 227.8234)"><title>%3</title><polygon fill="#fff" stroke="transparent" points="-4 4 -4 -227.823 643.547 -227.823 643.547 4 -4 4"/><g id="node1" class="node"><title>N8589</title><ellipse cx="51.12" cy="-198.368" fill="#8cd499" stroke="#000" stroke-width="0" rx="51.24" ry="18"/><text x="51.12" y="-194.167" fill="#000" font-family="Times,serif" font-size="14" text-anchor="middle">Dict (8589)</text></g><g id="node2" class="node"><title>N8592</title><polygon fill="#de707f" stroke="#000" stroke-width="0" points="334.372 -136.912 201.868 -136.912 201.868 -86.912 334.372 -86.912 334.372 -136.912"/><text x="268.12" y="-121.712" fill="#000" font-family="Times,serif" font-size="14" text-anchor="middle">CalcJobNode (8592)</text><text x="268.12" y="-107.712" fill="#000" font-family="Times,serif" font-size="14" text-anchor="middle">State: finished</text><text x="268.12" y="-93.712" fill="#000" font-family="Times,serif" font-size="14" text-anchor="middle">Exit Code: 0</text></g><g id="edge1" class="edge"><title>N8589-&gt;N8592</title><path fill="none" stroke="#000" d="M83.7412,-184.3132C92.6013,-180.5546 102.2094,-176.532 111.1201,-172.9117 137.6612,-162.1284 166.8812,-150.6648 192.8428,-140.6209"/><polygon fill="#000" stroke="#000" points="194.181 -143.856 202.249 -136.989 191.66 -137.326 194.181 -143.856"/></g><g id="node6" class="node"><title>N8593</title><ellipse cx="268.12" cy="-25.456" fill="#8cd499" stroke="#000" stroke-width="0" rx="96.092" ry="25.412"/><text x="268.12" y="-28.256" fill="#000" font-family="Times,serif" font-size="14" text-anchor="middle">RemoteData (8593)</text><text x="268.12" y="-14.256" fill="#000" font-family="Times,serif" font-size="14" text-anchor="middle">@example_computer</text></g><g id="edge5" class="edge"><title>N8592-&gt;N8593</title><path fill="none" stroke="#000" d="M268.1201,-86.9051C268.1201,-78.8923 268.1201,-69.8571 268.1201,-61.2303"/><polygon fill="#000" stroke="#000" points="271.62 -61.006 268.12 -51.006 264.62 -61.006 271.62 -61.006"/></g><g id="node3" class="node"><title>N8591</title><polygon fill="#e38851" stroke="#000" stroke-width="0" points="271.972 -216.368 120.268 -216.368 120.268 -180.368 271.972 -180.368 271.972 -216.368"/><text x="196.12" y="-201.167" fill="#000" font-family="Times,serif" font-size="14" text-anchor="middle">WorkChainNode (8591)</text><text x="196.12" y="-187.167" fill="#000" font-family="Times,serif" font-size="14" text-anchor="middle">State: running</text></g><g id="edge2" class="edge"><title>N8591-&gt;N8592</title><path fill="none" stroke="#000" stroke-dasharray="1 5" d="M211.3895,-180.0325C219.8414,-169.8836 230.6059,-156.9579 240.4817,-145.0992"/><polygon fill="#000" stroke="#000" points="243.428 -147.031 247.137 -137.107 238.049 -142.552 243.428 -147.031"/></g><g id="node4" class="node"><title>N8590</title><ellipse cx="341.12" cy="-198.368" fill="#8cd499" stroke="#000" stroke-width="0" rx="51.356" ry="25.412"/><text x="341.12" y="-201.167" fill="#000" font-family="Times,serif" font-size="14" text-anchor="middle">Int (8590)</text><text x="341.12" y="-187.167" fill="#000" font-family="Times,serif" font-size="14" text-anchor="middle">value: 3</text></g><g id="edge3" class="edge"><title>N8590-&gt;N8592</title><path fill="none" stroke="#000" d="M321.1726,-174.7431C313.378,-165.5118 304.3057,-154.7673 295.891,-144.8015"/><polygon fill="#000" stroke="#000" points="298.446 -142.403 289.32 -137.02 293.098 -146.919 298.446 -142.403"/></g><g id="node5" class="node"><title>N8588</title><ellipse cx="525.12" cy="-198.368" fill="#4ca4b9" fill-opacity=".667" stroke="#000" stroke-width="0" rx="114.354" ry="25.412"/><text x="525.12" y="-201.167" fill="#000" font-family="Times,serif" font-size="14" text-anchor="middle">Code (8588)</text><text x="525.12" y="-187.167" fill="#000" font-family="Times,serif" font-size="14" text-anchor="middle">exec@example_computer</text></g><g id="edge4" class="edge"><title>N8588-&gt;N8592</title><path fill="none" stroke="#000" d="M461.9217,-177.1073C426.4494,-165.1743 381.935,-150.1995 344.5167,-137.6118"/><polygon fill="#000" stroke="#000" points="345.261 -134.169 334.667 -134.298 343.029 -140.804 345.261 -134.169"/></g></g></svg>