<svg xmlns="http://www.w3.org/2000/svg" xmlns:xlink="http://www.w3.org/1999/xlink" width="768" height="108" viewBox="0 0 576 80.61"><g id="graph0" class="graph" transform="scale(.4443 .4443) rotate(0) translate(4 177.4558)"><title>%3</title><polygon fill="#fff" stroke="transparent" points="-4 4 -4 -177.456 1292.531 -177.456 1292.531 4 -4 4"/><g id="node1" class="node"><title>N8589</title><ellipse cx="114.427" cy="-155.456" fill="#8cd499" stroke="#000" stroke-width="0" rx="51.24" ry="18"/><text x="114.427" y="-151.256" fill="#000" font-family="Times,serif" font-size="14" text-anchor="middle">Dict (8589)</text></g><g id="node2" class="node"><title>N8592</title><polygon fill="#de707f" stroke="#000" stroke-width="0" points="482.791 -119.456 350.286 -119.456 350.286 -69.456 482.791 -69.456 482.791 -119.456"/><text x="416.539" y="-104.256" fill="#000" font-family="Times,serif" font-size="14" text-anchor="middle">CalcJobNode (8592)</text><text x="416.539" y="-90.256" fill="#000" font-family="Times,serif" font-size="14" text-anchor="middle">State: finished</text><text x="416.539" y="-76.256" fill="#000" font-family="Times,serif" font-size="14" text-anchor="middle">Exit Code: 0</text></g><g id="edge1" class="edge"><title>N8589-&gt;N8592</title><path fill="none" stroke="#000" d="M164.8316,-152.0726C209.4189,-148.2969 275.9703,-140.7399 332.4126,-126.4558 336.7915,-125.3477 341.2541,-124.0817 345.7256,-122.7078"/><polygon fill="#000" stroke="#000" points="347.062 -125.954 355.5 -119.547 344.908 -119.294 347.062 -125.954"/><text x="289.633" y="-158.256" fill="#000" font-family="Times,serif" font-size="14" text-anchor="middle">INPUT_CALC</text><text x="289.633" y="-144.256" fill="#000" font-family="Times,serif" font-size="14" text-anchor="middle">input1</text></g><g id="node3" class="node"><title>N8593</title><ellipse cx="667.85" cy="-94.456" fill="#8cd499" stroke="#000" stroke-width="0" rx="96.092" ry="25.412"/><text x="667.85" y="-97.256" fill="#000" font-family="Times,serif" font-size="14" text-anchor="middle">RemoteData (8593)</text><text x="667.85" y="-83.256" fill="#000" font-family="Times,serif" font-size="14" text-anchor="middle">@example_computer</text></g><g id="edge2" class="edge"><title>N8592-&gt;N8593</title><path fill="none" stroke="#000" d="M482.8964,-94.4558C506.8808,-94.4558 534.6051,-94.4558 561.1711,-94.4558"/><polygon fill="#000" stroke="#000" points="561.286 -97.956 571.286 -94.456 561.286 -90.956 561.286 -97.956"/><text x="527.109" y="-111.256" fill="#000" font-family="Times,serif" font-size="14" text-anchor="middle">CREATE</text><text x="527.109" y="-97.256" fill="#000" font-family="Times,serif" font-size="14" text-anchor="middle">output</text></g><g id="node6" class="node"><title>N8595</title><polygon fill="#de707f" fill-opacity=".467" stroke="#000" stroke-width="0" points="1048.079 -75.456 885.912 -75.456 885.912 -25.456 1048.079 -25.456 1048.079 -75.456"/><text x="966.996" y="-60.256" fill="#000" font-family="Times,serif" font-size="14" text-anchor="middle">CalcFunctionNode (8595)</text><text x="966.996" y="-46.256" fill="#000" font-family="Times,serif" font-size="14" text-anchor="middle">State: finished</text><text x="966.996" y="-32.256" fill="#000" font-family="Times,serif" font-size="14" text-anchor="middle">Exit Code: 200</text></g><g id="edge5" class="edge"><title>N8593-&gt;N8595</title><path fill="none" stroke="#000" d="M752.3735,-82.0236C790.8369,-76.3662 836.4278,-69.6605 875.6762,-63.8876"/><polygon fill="#000" stroke="#000" points="876.389 -67.321 885.773 -62.403 875.37 -60.395 876.389 -67.321"/><text x="824.925" y="-92.256" fill="#000" font-family="Times,serif" font-size="14" text-anchor="middle">INPUT_CALC</text><text x="824.925" y="-78.256" fill="#000" font-family="Times,serif" font-size="14" text-anchor="middle">input1</text></g><g id="node4" class="node"><title>N8590</title><ellipse cx="114.427" cy="-94.456" fill="#8cd499" stroke="#000" stroke-width="0" rx="51.356" ry="25.412"/><text x="114.427" y="-97.256" fill="#000" font-family="Times,serif" font-size="14" text-anchor="middle">Int (8590)</text><text x="114.427" y="-83.256" fill="#000" font-family="Times,serif" font-size="14" text-anchor="middle">value: 3</text></g><g id="edge3" class="edge"><title>N8590-&gt;N8592</title><path fill="none" stroke="#000" d="M165.6761,-94.4558C213.4387,-94.4558 285.2979,-94.4558 339.8823,-94.4558"/><polygon fill="#000" stroke="#000" points="340.21 -97.956 350.21 -94.456 340.21 -90.956 340.21 -97.956"/><text x="289.633" y="-111.256" fill="#000" font-family="Times,serif" font-size="14" text-anchor="middle">INPUT_CALC</text><text x="289.633" y="-97.256" fill="#000" font-family="Times,serif" font-size="14" text-anchor="middle">input2</text></g><g id="node5" class="node"><title>N8588</title><ellipse cx="114.427" cy="-25.456" fill="#4ca4b9" fill-opacity=".667" stroke="#000" stroke-width="0" rx="114.354" ry="25.412"/><text x="114.427" y="-28.256" fill="#000" font-family="Times,serif" font-size="14" text-anchor="middle">Code (8588)</text><text x="114.427" y="-14.256" fill="#000" font-family="Times,serif" font-size="14" text-anchor="middle">exec@example_computer</text></g><g id="edge4" class="edge"><title>N8588-&gt;N8592</title><path fill="none" stroke="#000" d="M213.7929,-38.1346C251.3174,-44.0128 294.1709,-52.0446 332.4126,-62.4558 336.4835,-63.5641 340.6315,-64.7946 344.795,-66.1092"/><polygon fill="#000" stroke="#000" points="343.916 -69.505 354.509 -69.311 346.107 -62.856 343.916 -69.505"/><text x="289.633" y="-79.256" fill="#000" font-family="Times,serif" font-size="14" text-anchor="middle">INPUT_CALC</text><text x="289.633" y="-65.256" fill="#000" font-family="Times,serif" font-size="14" text-anchor="middle">code</text></g><g id="node7" class="node"><title>N8597</title><ellipse cx="1212.854" cy="-77.456" fill="#8cd499" stroke="#000" stroke-width="0" rx="75.855" ry="18"/><text x="1212.854" y="-73.256" fill="#000" font-family="Times,serif" font-size="14" text-anchor="middle">FolderData (8597)</text></g><g id="edge6" class="edge"><title>N8595-&gt;N8597</title><path fill="none" stroke="#000" d="M1048.1802,-59.3715C1075.835,-62.4085 1106.6882,-65.7968 1134.1454,-68.8121"/><polygon fill="#000" stroke="#000" points="1133.773 -72.292 1144.095 -69.905 1134.537 -65.334 1133.773 -72.292"/><text x="1092.732" y="-84.256" fill="#000" font-family="Times,serif" font-size="14" text-anchor="middle">CREATE</text><text x="1092.732" y="-70.256" fill="#000" font-family="Times,serif" font-size="14" text-anchor="middle">output2</text></g><g id="node8" class="node"><title>N8596</title><ellipse cx="1212.854" cy="-23.456" fill="#8cd499" stroke="#000" stroke-width="0" rx="51.24" ry="18"/><text x="1212.854" y="-19.256" fill="#000" font-family="Times,serif" font-size="14" text-anchor="middle">Dict (8596)</text></g><g id="edge7" class="edge"><title>N8595-&gt;N8596</title><path fill="none" stroke="#000" d="M1048.1122,-33.0786C1054.2451,-32.0834 1060.3538,-31.1908 1066.2871,-30.4558 1094.0739,-27.0138 1125.0176,-25.237 1151.2855,-24.3301"/><polygon fill="#000" stroke="#000" points="1151.594 -27.822 1161.481 -24.013 1151.377 -20.826 1151.594 -27.822"/><text x="1092.732" y="-47.256" fill="#000" font-family="Times,serif" font-size="14" text-anchor="middle">CREATE</text><text x="1092.732" y="-33.256" fill="#000" font-family="Times,serif" font-size="14" text-anchor="middle">output1</text></g><g id="node9" class="node"><title>N8594</title><ellipse cx="667.85" cy="-25.456" fill="#8cd499" stroke="#000" stroke-width="0" rx="51.968" ry="25.412"/><text x="667.85" y="-28.256" fill="#000" font-family="Times,serif" font-size="14" text-anchor="middle">Str (8594)</text><text x="667.85" y="-14.256" fill="#000" font-family="Times,serif" font-size="14" text-anchor="middle">abc</text></g><g id="edge8" class="edge"><title>N8594-&gt;N8595</title><path fill="none" stroke="#000" d="M719.7173,-26.6302C760.1225,-27.8881 817.5821,-30.4286 867.7041,-35.4558 870.3766,-35.7239 873.087,-36.014 875.8211,-36.3226"/><polygon fill="#000" stroke="#000" points="875.455 -39.804 885.799 -37.514 876.284 -32.853 875.455 -39.804"/><text x="824.925" y="-52.256" fill="#000" font-family="Times,serif" font-size="14" text-anchor="middle">INPUT_CALC</text><text x="824.925" y="-38.256" fill="#000" font-family="Times,serif" font-size="14" text-anchor="middle">input2</text></g></g></svg>