<svg xmlns="http://www.w3.org/2000/svg" xmlns:xlink="http://www.w3.org/1999/xlink" width="768" height="128pt" viewBox="0 0 576 127.94"><g id="graph0" class="graph" transform="scale(.3604 .3604) rotate(0) translate(4 351)"><title>%3</title><polygon fill="#fff" stroke="transparent" points="-4 4 -4 -351 1594.207 -351 1594.207 4 -4 4"/><g id="node1" class="node"><title>N8589</title><ellipse cx="114.427" cy="-133" fill="#8cd499" stroke="#000" stroke-width="0" rx="51.24" ry="18"/><text x="114.427" y="-128.8" fill="#000" font-family="Times,serif" font-size="14" text-anchor="middle">Dict (8589)</text></g><g id="node2" class="node"><title>N8592</title><polygon fill="#de707f" stroke="#000" stroke-width="0" points="756.467 -162 623.962 -162 623.962 -112 756.467 -112 756.467 -162"/><text x="690.214" y="-146.8" fill="#000" font-family="Times,serif" font-size="14" text-anchor="middle">CalcJobNode (8592)</text><text x="690.214" y="-132.8" fill="#000" font-family="Times,serif" font-size="14" text-anchor="middle">State: finished</text><text x="690.214" y="-118.8" fill="#000" font-family="Times,serif" font-size="14" text-anchor="middle">Exit Code: 0</text></g><g id="edge1" class="edge"><title>N8589-&gt;N8592</title><path fill="none" stroke="#000" d="M152.2359,-120.8052C175.1425,-112.6943 204.536,-100.9765 228.854,-87 237.641,-81.9498 237.2677,-76.2891 246.854,-73 313.1052,-50.2687 505.6244,-91.211 613.9225,-117.4767"/><polygon fill="#000" stroke="#000" points="613.268 -120.92 623.813 -119.891 614.928 -114.119 613.268 -120.92"/><text x="431.523" y="-109.8" fill="#000" font-family="Times,serif" font-size="14" text-anchor="middle">INPUT_CALC</text><text x="431.523" y="-95.8" fill="#000" font-family="Times,serif" font-size="14" text-anchor="middle">input1</text></g><g id="node3" class="node"><title>N8591</title><polygon fill="#e38851" stroke="#000" stroke-width="0" points="507.375 -171 355.671 -171 355.671 -135 507.375 -135 507.375 -171"/><text x="431.523" y="-155.8" fill="#000" font-family="Times,serif" font-size="14" text-anchor="middle">WorkChainNode (8591)</text><text x="431.523" y="-141.8" fill="#000" font-family="Times,serif" font-size="14" text-anchor="middle">State: running</text></g><g id="edge2" class="edge"><title>N8589-&gt;N8591</title><path fill="none" stroke="#000" stroke-dasharray="5 2" d="M165.4906,-134.8369C210.8016,-136.6282 278.779,-139.7107 337.8472,-144 340.378,-144.1838 342.9466,-144.3784 345.5389,-144.5818"/><polygon fill="#000" stroke="#000" points="345.375 -148.08 355.627 -145.406 345.945 -141.103 345.375 -148.08"/><text x="292.351" y="-160.8" fill="#000" font-family="Times,serif" font-size="14" text-anchor="middle">INPUT_WORK</text><text x="292.351" y="-146.8" fill="#000" font-family="Times,serif" font-size="14" text-anchor="middle">input1</text></g><g id="node4" class="node"><title>N8593</title><ellipse cx="969.526" cy="-148" fill="#8cd499" stroke="#000" stroke-width="0" rx="96.092" ry="25.412"/><text x="969.526" y="-150.8" fill="#000" font-family="Times,serif" font-size="14" text-anchor="middle">RemoteData (8593)</text><text x="969.526" y="-136.8" fill="#000" font-family="Times,serif" font-size="14" text-anchor="middle">@example_computer</text></g><g id="edge3" class="edge"><title>N8592-&gt;N8593</title><path fill="none" stroke="#000" d="M756.4072,-139.6068C788.5529,-140.8728 827.9579,-142.4247 864.1026,-143.8482"/><polygon fill="#000" stroke="#000" points="864.072 -147.35 874.202 -144.246 864.347 -140.355 864.072 -147.35"/><text x="814.785" y="-159.8" fill="#000" font-family="Times,serif" font-size="14" text-anchor="middle">CREATE</text><text x="814.785" y="-145.8" fill="#000" font-family="Times,serif" font-size="14" text-anchor="middle">output</text></g><g id="edge4" class="edge"><title>N8591-&gt;N8592</title><path fill="none" stroke="#000" stroke-dasharray="1 5" d="M507.325,-139.8567C513.3592,-139.1177 519.3716,-138.4814 525.1987,-138 554.0606,-135.6158 585.8585,-134.9586 613.7736,-135.0362"/><polygon fill="#000" stroke="#000" points="613.849 -138.537 623.87 -135.096 613.891 -131.537 613.849 -138.537"/><text x="565.644" y="-154.8" fill="#000" font-family="Times,serif" font-size="14" text-anchor="middle">CALL_CALC</text><text x="565.644" y="-140.8" fill="#000" font-family="Times,serif" font-size="14" text-anchor="middle">call1</text></g><g id="node7" class="node"><title>N8597</title><ellipse cx="1514.53" cy="-137" fill="#8cd499" stroke="#000" stroke-width="0" rx="75.855" ry="18"/><text x="1514.53" y="-132.8" fill="#000" font-family="Times,serif" font-size="14" text-anchor="middle">FolderData (8597)</text></g><g id="edge7" class="edge"><title>N8591-&gt;N8597</title><path fill="none" stroke="#000" stroke-dasharray="5 2" d="M485.5606,-134.8615C492.9563,-131.8451 500.3533,-128.536 507.1987,-125 594.7146,-79.7933 591.7123,0 690.2144,0 690.2144,0 690.2144,0 1268.6714,0 1359.7922,0 1448.62,-72.6962 1490.1441,-112.1785"/><polygon fill="#000" stroke="#000" points="1487.952 -114.928 1497.571 -119.37 1492.822 -109.899 1487.952 -114.928"/><text x="969.526" y="-16.8" fill="#000" font-family="Times,serif" font-size="14" text-anchor="middle">RETURN</text><text x="969.526" y="-2.8" fill="#000" font-family="Times,serif" font-size="14" text-anchor="middle">output2</text></g><g id="node8" class="node"><title>N8596</title><ellipse cx="1514.53" cy="-271" fill="#8cd499" stroke="#000" stroke-width="0" rx="51.24" ry="18"/><text x="1514.53" y="-266.8" fill="#000" font-family="Times,serif" font-size="14" text-anchor="middle">Dict (8596)</text></g><g id="edge8" class="edge"><title>N8591-&gt;N8596</title><path fill="none" stroke="#000" stroke-dasharray="5 2" d="M473.0409,-171.1617C484.3275,-176.5246 496.4084,-182.6658 507.1987,-189 593.2413,-239.5092 590.4421,-319 690.2144,-319 690.2144,-319 690.2144,-319 1268.6714,-319 1338.6523,-319 1417.7962,-300.0352 1466.9343,-285.947"/><polygon fill="#000" stroke="#000" points="1468.031 -289.273 1476.65 -283.112 1466.07 -282.553 1468.031 -289.273"/><text x="969.526" y="-335.8" fill="#000" font-family="Times,serif" font-size="14" text-anchor="middle">RETURN</text><text x="969.526" y="-321.8" fill="#000" font-family="Times,serif" font-size="14" text-anchor="middle">output1</text></g><g id="node9" class="node"><title>N8595</title><polygon fill="#de707f" fill-opacity=".467" stroke="#000" stroke-width="0" points="1349.755 -230 1187.588 -230 1187.588 -180 1349.755 -180 1349.755 -230"/><text x="1268.671" y="-214.8" fill="#000" font-family="Times,serif" font-size="14" text-anchor="middle">CalcFunctionNode (8595)</text><text x="1268.671" y="-200.8" fill="#000" font-family="Times,serif" font-size="14" text-anchor="middle">State: finished</text><text x="1268.671" y="-186.8" fill="#000" font-family="Times,serif" font-size="14" text-anchor="middle">Exit Code: 200</text></g><g id="edge9" class="edge"><title>N8591-&gt;N8595</title><path fill="none" stroke="#000" stroke-dasharray="1 5" d="M507.3184,-167.6337C513.3541,-168.5305 519.3686,-169.3367 525.1987,-170 759.113,-196.6123 1036.6447,-203.0728 1177.2347,-204.586"/><polygon fill="#000" stroke="#000" points="1177.494 -208.089 1187.529 -204.69 1177.565 -201.089 1177.494 -208.089"/><text x="814.785" y="-211.8" fill="#000" font-family="Times,serif" font-size="14" text-anchor="middle">CALL_CALC</text><text x="814.785" y="-197.8" fill="#000" font-family="Times,serif" font-size="14" text-anchor="middle">call2</text></g><g id="edge12" class="edge"><title>N8593-&gt;N8595</title><path fill="none" stroke="#000" d="M1065.8144,-148.9039C1098.9945,-150.8765 1136.1542,-154.9556 1169.3799,-163 1182.4264,-166.1588 1195.9558,-170.844 1208.6736,-175.9526"/><polygon fill="#000" stroke="#000" points="1207.642 -179.314 1218.219 -179.923 1210.331 -172.851 1207.642 -179.314"/><text x="1126.601" y="-179.8" fill="#000" font-family="Times,serif" font-size="14" text-anchor="middle">INPUT_CALC</text><text x="1126.601" y="-165.8" fill="#000" font-family="Times,serif" font-size="14" text-anchor="middle">input1</text></g><g id="node5" class="node"><title>N8590</title><ellipse cx="114.427" cy="-53" fill="#8cd499" stroke="#000" stroke-width="0" rx="51.356" ry="25.412"/><text x="114.427" y="-55.8" fill="#000" font-family="Times,serif" font-size="14" text-anchor="middle">Int (8590)</text><text x="114.427" y="-41.8" fill="#000" font-family="Times,serif" font-size="14" text-anchor="middle">value: 3</text></g><g id="edge5" class="edge"><title>N8590-&gt;N8592</title><path fill="none" stroke="#000" d="M161.5767,-42.7373C236.2308,-28.3596 385.6432,-7.2297 507.1987,-38 559.0143,-51.1165 612.0707,-82.1422 647.6245,-105.9935"/><polygon fill="#000" stroke="#000" points="646.04 -109.149 656.275 -111.888 649.982 -103.364 646.04 -109.149"/><text x="431.523" y="-54.8" fill="#000" font-family="Times,serif" font-size="14" text-anchor="middle">INPUT_CALC</text><text x="431.523" y="-40.8" fill="#000" font-family="Times,serif" font-size="14" text-anchor="middle">input2</text></g><g id="edge10" class="edge"><title>N8590-&gt;N8591</title><path fill="none" stroke="#000" stroke-dasharray="5 2" d="M164.6068,-58.2076C211.4309,-64.5834 282.2287,-78.1783 337.8472,-106 347.1606,-110.6588 346.9551,-115.58 355.8472,-121 361.4938,-124.4418 367.5771,-127.6864 373.7536,-130.6925"/><polygon fill="#000" stroke="#000" points="372.287 -133.87 382.83 -134.921 375.243 -127.525 372.287 -133.87"/><text x="292.351" y="-122.8" fill="#000" font-family="Times,serif" font-size="14" text-anchor="middle">INPUT_WORK</text><text x="292.351" y="-108.8" fill="#000" font-family="Times,serif" font-size="14" text-anchor="middle">input2</text></g><g id="node6" class="node"><title>N8588</title><ellipse cx="114.427" cy="-203" fill="#4ca4b9" fill-opacity=".667" stroke="#000" stroke-width="0" rx="114.354" ry="25.412"/><text x="114.427" y="-205.8" fill="#000" font-family="Times,serif" font-size="14" text-anchor="middle">Code (8588)</text><text x="114.427" y="-191.8" fill="#000" font-family="Times,serif" font-size="14" text-anchor="middle">exec@example_computer</text></g><g id="edge6" class="edge"><title>N8588-&gt;N8592</title><path fill="none" stroke="#000" d="M215.9232,-214.8304C226.3578,-215.7169 236.8112,-216.4706 246.854,-217 407.8911,-225.4887 450.2446,-207.4452 606.0884,-166 608.7267,-165.2984 611.4017,-164.5554 614.0957,-163.7801"/><polygon fill="#000" stroke="#000" points="615.324 -167.066 623.902 -160.848 613.318 -160.36 615.324 -167.066"/><text x="431.523" y="-233.8" fill="#000" font-family="Times,serif" font-size="14" text-anchor="middle">INPUT_CALC</text><text x="431.523" y="-219.8" fill="#000" font-family="Times,serif" font-size="14" text-anchor="middle">code</text></g><g id="edge11" class="edge"><title>N8588-&gt;N8591</title><path fill="none" stroke="#000" stroke-dasharray="5 2" d="M214.1723,-190.5108C252.8736,-185.3118 297.5081,-178.8826 337.8472,-172 340.3878,-171.5665 342.9649,-171.1157 345.5647,-170.6513"/><polygon fill="#000" stroke="#000" points="346.47 -174.044 355.676 -168.8 345.209 -167.158 346.47 -174.044"/><text x="292.351" y="-201.8" fill="#000" font-family="Times,serif" font-size="14" text-anchor="middle">INPUT_WORK</text><text x="292.351" y="-187.8" fill="#000" font-family="Times,serif" font-size="14" text-anchor="middle">code</text></g><g id="edge13" class="edge"><title>N8595-&gt;N8597</title><path fill="none" stroke="#000" d="M1349.856,-182.5458C1384.1851,-173.051 1423.4429,-162.193 1455.0152,-153.4606"/><polygon fill="#000" stroke="#000" points="1456.275 -156.744 1464.98 -150.705 1454.409 -149.997 1456.275 -156.744"/><text x="1394.408" y="-193.8" fill="#000" font-family="Times,serif" font-size="14" text-anchor="middle">CREATE</text><text x="1394.408" y="-179.8" fill="#000" font-family="Times,serif" font-size="14" text-anchor="middle">output2</text></g><g id="edge14" class="edge"><title>N8595-&gt;N8596</title><path fill="none" stroke="#000" d="M1349.856,-226.7938C1387.5027,-236.8999 1431.0765,-248.5972 1463.9419,-257.4198"/><polygon fill="#000" stroke="#000" points="1463.214 -260.848 1473.779 -260.061 1465.029 -254.088 1463.214 -260.848"/><text x="1394.408" y="-261.8" fill="#000" font-family="Times,serif" font-size="14" text-anchor="middle">CREATE</text><text x="1394.408" y="-247.8" fill="#000" font-family="Times,serif" font-size="14" text-anchor="middle">output1</text></g><g id="node10" class="node"><title>N8594</title><ellipse cx="969.526" cy="-258" fill="#8cd499" stroke="#000" stroke-width="0" rx="51.968" ry="25.412"/><text x="969.526" y="-260.8" fill="#000" font-family="Times,serif" font-size="14" text-anchor="middle">Str (8594)</text><text x="969.526" y="-246.8" fill="#000" font-family="Times,serif" font-size="14" text-anchor="middle">abc</text></g><g id="edge15" class="edge"><title>N8594-&gt;N8595</title><path fill="none" stroke="#000" d="M1018.2544,-249.3667C1061.2599,-241.7473 1125.0846,-230.4394 1177.5342,-221.1469"/><polygon fill="#000" stroke="#000" points="1178.289 -224.568 1187.525 -219.377 1177.068 -217.675 1178.289 -224.568"/><text x="1126.601" y="-252.8" fill="#000" font-family="Times,serif" font-size="14" text-anchor="middle">INPUT_CALC</text><text x="1126.601" y="-238.8" fill="#000" font-family="Times,serif" font-size="14" text-anchor="middle">input2</text></g></g></svg>