<svg xmlns="http://www.w3.org/2000/svg" xmlns:xlink="http://www.w3.org/1999/xlink" width="576" height="152pt" viewBox="0 0 432 151.71"><g id="graph0" class="graph" transform="scale(.6642 .6642) rotate(0) translate(4 224.3939)"><title>%3</title><polygon fill="#fff" stroke="transparent" points="-4 4 -4 -224.394 646.371 -224.394 646.371 4 -4 4"/><g id="node1" class="node"><title>N8592</title><ellipse cx="376.672" cy="-99" fill="#8cd499" stroke="#000" stroke-width="0" rx="93.532" ry="35.211"/><text x="376.672" y="-108.8" fill="#000" font-family="Times,serif" font-size="14" text-anchor="middle">CalcJobNode (8592)</text><text x="376.672" y="-94.8" fill="#000" font-family="Times,serif" font-size="14" text-anchor="middle">State: finished</text><text x="376.672" y="-80.8" fill="#000" font-family="Times,serif" font-size="14" text-anchor="middle">Exit Code: 0</text></g><g id="node6" class="node"><title>N8593</title><polygon fill="none" stroke="#000" points="642.463 -117 506.097 -117 506.097 -81 642.463 -81 642.463 -117"/><text x="574.28" y="-101.8" fill="#000" font-family="Times,serif" font-size="14" text-anchor="middle">RemoteData (8593)</text><text x="574.28" y="-87.8" fill="#000" font-family="Times,serif" font-size="14" text-anchor="middle">@example_computer</text></g><g id="edge5" class="edge"><title>N8592-&gt;N8593</title><path fill="none" stroke="#00f" d="M470.2679,-99C478.8493,-99 487.4833,-99 495.9099,-99"/><polygon fill="#00f" stroke="#00f" points="496.068 -102.5 506.068 -99 496.068 -95.5 496.068 -102.5"/></g><g id="node2" class="node"><title>N8591</title><polygon fill="#e38851" stroke="#000" stroke-width="0" points="247.234 -191 185.406 -220.288 61.75 -220.288 -.078 -191 61.75 -161.712 185.406 -161.712 247.234 -191"/><text x="123.578" y="-193.8" fill="#000" font-family="Times,serif" font-size="14" text-anchor="middle">WorkChainNode (8591)</text><text x="123.578" y="-179.8" fill="#000" font-family="Times,serif" font-size="14" text-anchor="middle">State: running</text></g><g id="edge1" class="edge"><title>N8591-&gt;N8592</title><path fill="none" stroke="#00f" d="M200.4295,-168.6308C215.9874,-163.749 232.1675,-158.4148 247.1561,-153 266.4628,-146.0252 287.0919,-137.7915 306.0811,-129.8833"/><polygon fill="#00f" stroke="#00f" points="307.684 -133.007 315.551 -125.91 304.976 -126.552 307.684 -133.007"/></g><g id="node3" class="node"><title>N8590</title><polygon fill="none" stroke="#000" points="159.955 -144 87.201 -144 87.201 -108 159.955 -108 159.955 -144"/><text x="123.578" y="-128.8" fill="#000" font-family="Times,serif" font-size="14" text-anchor="middle">Int (8590)</text><text x="123.578" y="-114.8" fill="#000" font-family="Times,serif" font-size="14" text-anchor="middle">value: 3</text></g><g id="edge2" class="edge"><title>N8590-&gt;N8592</title><path fill="none" stroke="#00f" d="M159.8403,-122.1316C190.2722,-118.8851 235.2391,-114.088 276.3454,-109.7028"/><polygon fill="#00f" stroke="#00f" points="276.852 -113.169 286.424 -108.628 276.11 -106.208 276.852 -113.169"/></g><g id="node4" class="node"><title>N8589</title><polygon fill="none" stroke="#000" points="164.006 -90 83.15 -90 83.15 -54 164.006 -54 164.006 -90"/><text x="123.578" y="-67.8" fill="#000" font-family="Times,serif" font-size="14" text-anchor="middle">Dict (8589)</text></g><g id="edge3" class="edge"><title>N8589-&gt;N8592</title><path fill="none" stroke="#00f" d="M164.242,-76.338C194.45,-79.5606 237.0202,-84.102 276.1278,-88.2739"/><polygon fill="#00f" stroke="#00f" points="276.203 -91.802 286.518 -89.382 276.945 -84.841 276.203 -91.802"/></g><g id="node5" class="node"><title>N8588</title><polygon fill="none" stroke="#000" points="204.402 -36 42.754 -36 42.754 0 204.402 0 204.402 -36"/><text x="123.578" y="-20.8" fill="#000" font-family="Times,serif" font-size="14" text-anchor="middle">Code (8588)</text><text x="123.578" y="-6.8" fill="#000" font-family="Times,serif" font-size="14" text-anchor="middle">exec@example_computer</text></g><g id="edge4" class="edge"><title>N8588-&gt;N8592</title><path fill="none" stroke="#00f" d="M204.564,-33.5022C218.8726,-36.8618 233.5407,-40.7126 247.1561,-45 267.225,-51.3196 288.4941,-59.5213 307.8692,-67.6159"/><polygon fill="#00f" stroke="#00f" points="306.642 -70.897 317.215 -71.572 309.371 -64.451 306.642 -70.897"/></g></g></svg>