<svg xmlns="http://www.w3.org/2000/svg" xmlns:xlink="http://www.w3.org/1999/xlink" width="576" height="131pt" viewBox="0 0 432 131.17"><g id="graph0" class="graph" transform="scale(.5595 .5595) rotate(0) translate(4 230.4558)"><title>%3</title><polygon fill="#fff" stroke="transparent" points="-4 4 -4 -230.456 768.145 -230.456 768.145 4 -4 4"/><g id="node1" class="node"><title>N8592</title><polygon fill="#de707f" stroke="#000" stroke-width="0" points="482.791 -141.456 350.286 -141.456 350.286 -91.456 482.791 -91.456 482.791 -141.456"/><text x="416.539" y="-126.256" fill="#000" font-family="Times,serif" font-size="14" text-anchor="middle">CalcJobNode (8592)</text><text x="416.539" y="-112.256" fill="#000" font-family="Times,serif" font-size="14" text-anchor="middle">State: finished</text><text x="416.539" y="-98.256" fill="#000" font-family="Times,serif" font-size="14" text-anchor="middle">Exit Code: 0</text></g><g id="node6" class="node"><title>N8593</title><ellipse cx="667.85" cy="-116.456" fill="#8cd499" stroke="#000" stroke-width="0" rx="96.092" ry="25.412"/><text x="667.85" y="-119.256" fill="#000" font-family="Times,serif" font-size="14" text-anchor="middle">RemoteData (8593)</text><text x="667.85" y="-105.256" fill="#000" font-family="Times,serif" font-size="14" text-anchor="middle">@example_computer</text></g><g id="edge5" class="edge"><title>N8592-&gt;N8593</title><path fill="none" stroke="#000" d="M482.8964,-116.4558C506.8808,-116.4558 534.6051,-116.4558 561.1711,-116.4558"/><polygon fill="#000" stroke="#000" points="561.286 -119.956 571.286 -116.456 561.286 -112.956 561.286 -119.956"/><text x="527.109" y="-133.256" fill="#000" font-family="Times,serif" font-size="14" text-anchor="middle">CREATE</text><text x="527.109" y="-119.256" fill="#000" font-family="Times,serif" font-size="14" text-anchor="middle">output</text></g><g id="node2" class="node"><title>N8591</title><polygon fill="#e38851" stroke="#000" stroke-width="0" points="190.279 -226.456 38.575 -226.456 38.575 -190.456 190.279 -190.456 190.279 -226.456"/><text x="114.427" y="-211.256" fill="#000" font-family="Times,serif" font-size="14" text-anchor="middle">WorkChainNode (8591)</text><text x="114.427" y="-197.256" fill="#000" font-family="Times,serif" font-size="14" text-anchor="middle">State: running</text></g><g id="edge1" class="edge"><title>N8591-&gt;N8592</title><path fill="none" stroke="#000" stroke-dasharray="1 5" d="M190.2915,-199.8123C233.0017,-193.3968 286.7633,-182.6953 332.4126,-165.4558 345.2649,-160.6022 358.4365,-153.891 370.4291,-146.9911"/><polygon fill="#000" stroke="#000" points="372.528 -149.816 379.345 -141.706 368.958 -143.794 372.528 -149.816"/><text x="289.633" y="-205.256" fill="#000" font-family="Times,serif" font-size="14" text-anchor="middle">CALL_CALC</text><text x="289.633" y="-191.256" fill="#000" font-family="Times,serif" font-size="14" text-anchor="middle">call1</text></g><g id="node3" class="node"><title>N8590</title><ellipse cx="114.427" cy="-147.456" fill="#8cd499" stroke="#000" stroke-width="0" rx="51.356" ry="25.412"/><text x="114.427" y="-150.256" fill="#000" font-family="Times,serif" font-size="14" text-anchor="middle">Int (8590)</text><text x="114.427" y="-136.256" fill="#000" font-family="Times,serif" font-size="14" text-anchor="middle">value: 3</text></g><g id="edge2" class="edge"><title>N8590-&gt;N8592</title><path fill="none" stroke="#000" d="M164.6524,-142.4731C208.8403,-138.0688 274.9063,-131.4338 332.4126,-125.4558 334.9054,-125.1967 337.4396,-124.9321 339.9987,-124.664"/><polygon fill="#000" stroke="#000" points="340.378 -128.143 349.957 -123.616 339.646 -121.182 340.378 -128.143"/><text x="289.633" y="-150.256" fill="#000" font-family="Times,serif" font-size="14" text-anchor="middle">INPUT_CALC</text><text x="289.633" y="-136.256" fill="#000" font-family="Times,serif" font-size="14" text-anchor="middle">input2</text></g><g id="node4" class="node"><title>N8589</title><ellipse cx="114.427" cy="-86.456" fill="#8cd499" stroke="#000" stroke-width="0" rx="51.24" ry="18"/><text x="114.427" y="-82.256" fill="#000" font-family="Times,serif" font-size="14" text-anchor="middle">Dict (8589)</text></g><g id="edge3" class="edge"><title>N8589-&gt;N8592</title><path fill="none" stroke="#000" d="M165.7496,-86.5664C210.0703,-87.2524 275.7248,-89.6827 332.4126,-97.4558 334.9437,-97.8029 337.5111,-98.1881 340.0987,-98.6048"/><polygon fill="#000" stroke="#000" points="339.694 -102.087 350.146 -100.354 340.894 -95.191 339.694 -102.087"/><text x="289.633" y="-114.256" fill="#000" font-family="Times,serif" font-size="14" text-anchor="middle">INPUT_CALC</text><text x="289.633" y="-100.256" fill="#000" font-family="Times,serif" font-size="14" text-anchor="middle">input1</text></g><g id="node5" class="node"><title>N8588</title><ellipse cx="114.427" cy="-25.456" fill="#4ca4b9" fill-opacity=".667" stroke="#000" stroke-width="0" rx="114.354" ry="25.412"/><text x="114.427" y="-28.256" fill="#000" font-family="Times,serif" font-size="14" text-anchor="middle">Code (8588)</text><text x="114.427" y="-14.256" fill="#000" font-family="Times,serif" font-size="14" text-anchor="middle">exec@example_computer</text></g><g id="edge4" class="edge"><title>N8588-&gt;N8592</title><path fill="none" stroke="#000" d="M225.4109,-31.675C260.5369,-36.2761 298.9159,-44.1278 332.4126,-57.4558 349.0214,-64.0644 365.5171,-74.5388 379.4435,-84.8403"/><polygon fill="#000" stroke="#000" points="377.69 -87.905 387.761 -91.196 381.94 -82.343 377.69 -87.905"/><text x="289.633" y="-74.256" fill="#000" font-family="Times,serif" font-size="14" text-anchor="middle">INPUT_CALC</text><text x="289.633" y="-60.256" fill="#000" font-family="Times,serif" font-size="14" text-anchor="middle">code</text></g></g></svg>