<svg xmlns="http://www.w3.org/2000/svg" xmlns:xlink="http://www.w3.org/1999/xlink" width="647pt" height="232pt" viewBox="0 0 647.1 231.82"><g id="graph0" class="graph" transform="scale(1 1) rotate(0) translate(4 227.8234)"><title>%3</title><polygon fill="#fff" stroke="transparent" points="-4 4 -4 -227.823 643.103 -227.823 643.103 4 -4 4"/><g id="node1" class="node"><title>N8592</title><polygon fill="#de707f" stroke="#000" stroke-width="0" points="346.928 -136.912 214.424 -136.912 214.424 -86.912 346.928 -86.912 346.928 -136.912"/><text x="280.676" y="-121.712" fill="#000" font-family="Times,serif" font-size="14" text-anchor="middle">CalcJobNode (8592)</text><text x="280.676" y="-107.712" fill="#000" font-family="Times,serif" font-size="14" text-anchor="middle">State: finished</text><text x="280.676" y="-93.712" fill="#000" font-family="Times,serif" font-size="14" text-anchor="middle">Exit Code: 0</text></g><g id="node6" class="node"><title>N8593</title><ellipse cx="280.676" cy="-25.456" fill="#8cd499" stroke="#000" stroke-width="0" rx="96.092" ry="25.412"/><text x="280.676" y="-28.256" fill="#000" font-family="Times,serif" font-size="14" text-anchor="middle">RemoteData (8593)</text><text x="280.676" y="-14.256" fill="#000" font-family="Times,serif" font-size="14" text-anchor="middle">@example_computer</text></g><g id="edge5" class="edge"><title>N8592-&gt;N8593</title><path fill="none" stroke="#000" d="M280.6758,-86.9051C280.6758,-78.8923 280.6758,-69.8571 280.6758,-61.2303"/><polygon fill="#000" stroke="#000" points="284.176 -61.006 280.676 -51.006 277.176 -61.006 284.176 -61.006"/></g><g id="node2" class="node"><title>N8591</title><polygon fill="#e38851" stroke="#000" stroke-width="0" points="151.528 -216.368 -.176 -216.368 -.176 -180.368 151.528 -180.368 151.528 -216.368"/><text x="75.676" y="-201.167" fill="#000" font-family="Times,serif" font-size="14" text-anchor="middle">WorkChainNode (8591)</text><text x="75.676" y="-187.167" fill="#000" font-family="Times,serif" font-size="14" text-anchor="middle">State: running</text></g><g id="edge1" class="edge"><title>N8591-&gt;N8592</title><path fill="none" stroke="#000" stroke-dasharray="1 5" d="M118.6505,-180.2436C145.5698,-168.8907 180.8716,-154.0027 211.65,-141.0223"/><polygon fill="#000" stroke="#000" points="213.188 -144.172 221.042 -137.061 210.468 -137.722 213.188 -144.172"/></g><g id="node3" class="node"><title>N8590</title><ellipse cx="220.676" cy="-198.368" fill="#8cd499" stroke="#000" stroke-width="0" rx="51.356" ry="25.412"/><text x="220.676" y="-201.167" fill="#000" font-family="Times,serif" font-size="14" text-anchor="middle">Int (8590)</text><text x="220.676" y="-187.167" fill="#000" font-family="Times,serif" font-size="14" text-anchor="middle">value: 3</text></g><g id="edge2" class="edge"><title>N8590-&gt;N8592</title><path fill="none" stroke="#000" d="M237.3891,-174.2848C243.6111,-165.3193 250.7886,-154.9771 257.4876,-145.3242"/><polygon fill="#000" stroke="#000" points="260.389 -147.282 263.216 -137.071 254.639 -143.291 260.389 -147.282"/></g><g id="node4" class="node"><title>N8589</title><ellipse cx="340.676" cy="-198.368" fill="#8cd499" stroke="#000" stroke-width="0" rx="51.24" ry="18"/><text x="340.676" y="-194.167" fill="#000" font-family="Times,serif" font-size="14" text-anchor="middle">Dict (8589)</text></g><g id="edge3" class="edge"><title>N8589-&gt;N8592</title><path fill="none" stroke="#000" d="M328.5339,-180.8719C321.4799,-170.7076 312.3549,-157.5591 303.9673,-145.4731"/><polygon fill="#000" stroke="#000" points="306.607 -143.138 298.03 -136.918 300.856 -147.129 306.607 -143.138"/></g><g id="node5" class="node"><title>N8588</title><ellipse cx="524.676" cy="-198.368" fill="#4ca4b9" fill-opacity=".667" stroke="#000" stroke-width="0" rx="114.354" ry="25.412"/><text x="524.676" y="-201.167" fill="#000" font-family="Times,serif" font-size="14" text-anchor="middle">Code (8588)</text><text x="524.676" y="-187.167" fill="#000" font-family="Times,serif" font-size="14" text-anchor="middle">exec@example_computer</text></g><g id="edge4" class="edge"><title>N8588-&gt;N8592</title><path fill="none" stroke="#000" d="M463.7337,-176.7741C431.2196,-165.2535 390.91,-150.9707 356.3999,-138.7428"/><polygon fill="#000" stroke="#000" points="357.426 -135.393 346.831 -135.352 355.088 -141.991 357.426 -135.393"/></g></g></svg>