<svg xmlns="http://www.w3.org/2000/svg" xmlns:xlink="http://www.w3.org/1999/xlink" width="768" height="184" viewBox="0 0 576 137.79"><g id="graph0" class="graph" transform="scale(.7593 .7593) rotate(0) translate(4 177.4558)"><title>%3</title><polygon fill="#fff" stroke="transparent" points="-4 4 -4 -177.456 754.553 -177.456 754.553 4 -4 4"/><g id="node1" class="node"><title>N8589</title><ellipse cx="114.427" cy="-155.456" fill="#8cd499" stroke="#000" stroke-width="0" rx="51.24" ry="18"/><text x="114.427" y="-151.256" fill="#000" font-family="Times,serif" font-size="14" text-anchor="middle">Dict (8589)</text></g><g id="node2" class="node"><title>N8591</title><polygon fill="#e38851" stroke="#000" stroke-width="0" points="507.375 -112.456 355.671 -112.456 355.671 -76.456 507.375 -76.456 507.375 -112.456"/><text x="431.523" y="-97.256" fill="#000" font-family="Times,serif" font-size="14" text-anchor="middle">WorkChainNode (8591)</text><text x="431.523" y="-83.256" fill="#000" font-family="Times,serif" font-size="14" text-anchor="middle">State: running</text></g><g id="edge1" class="edge"><title>N8589-&gt;N8591</title><path fill="none" stroke="#000" stroke-dasharray="5 2" d="M164.6309,-151.8287C210.2512,-147.8523 279.1864,-140.1369 337.8472,-126.4558 349.997,-123.6222 362.7888,-119.8225 374.8815,-115.8324"/><polygon fill="#000" stroke="#000" points="376.056 -119.13 384.404 -112.606 373.81 -112.5 376.056 -119.13"/><text x="292.351" y="-158.256" fill="#000" font-family="Times,serif" font-size="14" text-anchor="middle">INPUT_WORK</text><text x="292.351" y="-144.256" fill="#000" font-family="Times,serif" font-size="14" text-anchor="middle">input1</text></g><g id="node3" class="node"><title>N8597</title><ellipse cx="674.876" cy="-121.456" fill="#8cd499" stroke="#000" stroke-width="0" rx="75.855" ry="18"/><text x="674.876" y="-117.256" fill="#000" font-family="Times,serif" font-size="14" text-anchor="middle">FolderData (8597)</text></g><g id="edge2" class="edge"><title>N8591-&gt;N8597</title><path fill="none" stroke="#000" stroke-dasharray="5 2" d="M507.5203,-102.8878C535.5906,-106.0021 567.4552,-109.5375 595.7925,-112.6815"/><polygon fill="#000" stroke="#000" points="595.734 -116.197 606.059 -113.821 596.506 -109.239 595.734 -116.197"/><text x="553.199" y="-126.256" fill="#000" font-family="Times,serif" font-size="14" text-anchor="middle">RETURN</text><text x="553.199" y="-112.256" fill="#000" font-family="Times,serif" font-size="14" text-anchor="middle">output2</text></g><g id="node4" class="node"><title>N8596</title><ellipse cx="674.876" cy="-67.456" fill="#8cd499" stroke="#000" stroke-width="0" rx="51.24" ry="18"/><text x="674.876" y="-63.256" fill="#000" font-family="Times,serif" font-size="14" text-anchor="middle">Dict (8596)</text></g><g id="edge3" class="edge"><title>N8591-&gt;N8596</title><path fill="none" stroke="#000" stroke-dasharray="5 2" d="M506.2139,-76.4504C512.6101,-75.2927 519.0017,-74.2679 525.1987,-73.4558 554.0086,-69.6806 586.1808,-68.0578 613.293,-67.4277"/><polygon fill="#000" stroke="#000" points="613.488 -70.925 623.419 -67.232 613.353 -63.926 613.488 -70.925"/><text x="553.199" y="-90.256" fill="#000" font-family="Times,serif" font-size="14" text-anchor="middle">RETURN</text><text x="553.199" y="-76.256" fill="#000" font-family="Times,serif" font-size="14" text-anchor="middle">output1</text></g><g id="node5" class="node"><title>N8590</title><ellipse cx="114.427" cy="-94.456" fill="#8cd499" stroke="#000" stroke-width="0" rx="51.356" ry="25.412"/><text x="114.427" y="-97.256" fill="#000" font-family="Times,serif" font-size="14" text-anchor="middle">Int (8590)</text><text x="114.427" y="-83.256" fill="#000" font-family="Times,serif" font-size="14" text-anchor="middle">value: 3</text></g><g id="edge4" class="edge"><title>N8590-&gt;N8591</title><path fill="none" stroke="#000" stroke-dasharray="5 2" d="M165.7264,-94.4558C214.2581,-94.4558 288.0289,-94.4558 345.5492,-94.4558"/><polygon fill="#000" stroke="#000" points="345.725 -97.956 355.725 -94.456 345.725 -90.956 345.725 -97.956"/><text x="292.351" y="-111.256" fill="#000" font-family="Times,serif" font-size="14" text-anchor="middle">INPUT_WORK</text><text x="292.351" y="-97.256" fill="#000" font-family="Times,serif" font-size="14" text-anchor="middle">input2</text></g><g id="node6" class="node"><title>N8588</title><ellipse cx="114.427" cy="-25.456" fill="#4ca4b9" fill-opacity=".667" stroke="#000" stroke-width="0" rx="114.354" ry="25.412"/><text x="114.427" y="-28.256" fill="#000" font-family="Times,serif" font-size="14" text-anchor="middle">Code (8588)</text><text x="114.427" y="-14.256" fill="#000" font-family="Times,serif" font-size="14" text-anchor="middle">exec@example_computer</text></g><g id="edge5" class="edge"><title>N8588-&gt;N8591</title><path fill="none" stroke="#000" stroke-dasharray="5 2" d="M213.5828,-38.2832C252.6086,-44.2646 297.6235,-52.3286 337.8472,-62.4558 349.5653,-65.4061 361.9131,-69.1498 373.6607,-73.0284"/><polygon fill="#000" stroke="#000" points="372.766 -76.421 383.361 -76.304 375.006 -69.788 372.766 -76.421"/><text x="292.351" y="-79.256" fill="#000" font-family="Times,serif" font-size="14" text-anchor="middle">INPUT_WORK</text><text x="292.351" y="-65.256" fill="#000" font-family="Times,serif" font-size="14" text-anchor="middle">code</text></g></g></svg>