<svg xmlns="http://www.w3.org/2000/svg" xmlns:xlink="http://www.w3.org/1999/xlink" width="576" height="148pt" viewBox="0 0 432 148.03"><g id="graph0" class="graph" transform="scale(.6314 .6314) rotate(0) translate(4 230.4558)"><title>%3</title><polygon fill="#fff" stroke="transparent" points="-4 4 -4 -230.456 680.226 -230.456 680.226 4 -4 4"/><g id="node1" class="node"><title>N8592</title><polygon fill="#de707f" stroke="#000" points="423.374 -141.456 265.014 -141.456 265.014 -91.456 423.374 -91.456 423.374 -141.456"/><text x="344.194" y="-126.256" fill="#000" font-family="Times,serif" font-size="14" text-anchor="middle">CalcJobNode (b23e692e)</text><text x="344.194" y="-112.256" fill="#000" font-family="Times,serif" font-size="14" text-anchor="middle">State: finished</text><text x="344.194" y="-98.256" fill="#000" font-family="Times,serif" font-size="14" text-anchor="middle">Exit Code: 0</text></g><g id="node6" class="node"><title>N8593</title><ellipse cx="567.88" cy="-116.456" fill="#8cd499" stroke="#000" rx="108.192" ry="25.412"/><text x="567.88" y="-119.256" fill="#000" font-family="Times,serif" font-size="14" text-anchor="middle">RemoteData (33c97bcd)</text><text x="567.88" y="-105.256" fill="#000" font-family="Times,serif" font-size="14" text-anchor="middle">@example_computer</text></g><g id="edge5" class="edge"><title>N8592-&gt;N8593</title><path fill="none" stroke="#00f" d="M423.687,-116.4558C431.9906,-116.4558 440.5544,-116.4558 449.1728,-116.4558"/><polygon fill="#00f" stroke="#00f" points="449.303 -119.956 459.303 -116.456 449.303 -112.956 449.303 -119.956"/></g><g id="node2" class="node"><title>N8591</title><polygon fill="#e38851" stroke="#000" points="203.206 -226.456 25.648 -226.456 25.648 -190.456 203.206 -190.456 203.206 -226.456"/><text x="114.427" y="-211.256" fill="#000" font-family="Times,serif" font-size="14" text-anchor="middle">WorkChainNode (0a8223e7)</text><text x="114.427" y="-197.256" fill="#000" font-family="Times,serif" font-size="14" text-anchor="middle">State: running</text></g><g id="edge1" class="edge"><title>N8591-&gt;N8592</title><path fill="none" stroke="#00f" stroke-dasharray="1 5" d="M202.3594,-190.388C211.4172,-187.7332 220.3937,-184.7612 228.854,-181.4558 252.3523,-172.2753 276.9029,-159.0187 297.284,-146.8687"/><polygon fill="#00f" stroke="#00f" points="299.301 -149.739 306.041 -141.564 295.675 -143.751 299.301 -149.739"/></g><g id="node3" class="node"><title>N8590</title><ellipse cx="114.427" cy="-147.456" fill="#8cd499" stroke="#000" rx="70.953" ry="25.412"/><text x="114.427" y="-150.256" fill="#000" font-family="Times,serif" font-size="14" text-anchor="middle">Int (6b413465)</text><text x="114.427" y="-136.256" fill="#000" font-family="Times,serif" font-size="14" text-anchor="middle">value: 3</text></g><g id="edge2" class="edge"><title>N8590-&gt;N8592</title><path fill="none" stroke="#00f" d="M180.8851,-138.4894C203.9496,-135.3775 230.2016,-131.8356 254.8097,-128.5155"/><polygon fill="#00f" stroke="#00f" points="255.433 -131.963 264.875 -127.157 254.497 -125.026 255.433 -131.963"/></g><g id="node4" class="node"><title>N8589</title><ellipse cx="114.427" cy="-86.456" fill="#8cd499" stroke="#000" rx="67.135" ry="18"/><text x="114.427" y="-82.256" fill="#000" font-family="Times,serif" font-size="14" text-anchor="middle">Dict (0ea79a16)</text></g><g id="edge3" class="edge"><title>N8589-&gt;N8592</title><path fill="none" stroke="#00f" d="M175.0961,-94.3772C199.5002,-97.5636 228.1392,-101.3029 254.8403,-104.7892"/><polygon fill="#00f" stroke="#00f" points="254.597 -108.287 264.966 -106.111 255.503 -101.346 254.597 -108.287"/></g><g id="node5" class="node"><title>N8588</title><ellipse cx="114.427" cy="-25.456" fill="#4ca4b9" fill-opacity=".667" stroke="#000" rx="114.354" ry="25.412"/><text x="114.427" y="-28.256" fill="#000" font-family="Times,serif" font-size="14" text-anchor="middle">Code (beeeb810)</text><text x="114.427" y="-14.256" fill="#000" font-family="Times,serif" font-size="14" text-anchor="middle">exec@example_computer</text></g><g id="edge4" class="edge"><title>N8588-&gt;N8592</title><path fill="none" stroke="#00f" d="M187.3925,-45.1109C201.303,-49.426 215.6388,-54.2706 228.854,-59.4558 248.8671,-67.3083 270.1355,-77.3135 288.8863,-86.7426"/><polygon fill="#00f" stroke="#00f" points="287.372 -89.899 297.873 -91.313 290.546 -83.66 287.372 -89.899"/></g></g></svg>