<svg xmlns="http://www.w3.org/2000/svg" xmlns:svg="http://www.w3.org/2000/svg" id="svg4700" width="250mm" height="100mm" version="1.1" viewBox="0 0 885.827 354.331"><defs id="defs4702"><marker id="marker22558" orient="auto" refX="0" refY="0" style="overflow:visible"><path id="path22560" d="m 5.77,0 -8.65,5 0,-10 8.65,5 z" transform="matrix(0.4,0,0,0.4,-1.8,0)" style="fill:#fff;fill-rule:evenodd;stroke:#555;stroke-width:1pt;stroke-opacity:1"/></marker><marker style="overflow:visible" id="marker15618" orient="auto" refX="0" refY="0"><path style="fill:#fff;fill-rule:evenodd;stroke:#555;stroke-width:1pt;stroke-opacity:1" id="path15620" d="m 5.77,0 -8.65,5 0,-10 8.65,5 z" transform="matrix(0.4,0,0,0.4,-1.8,0)"/></marker><marker id="marker15152" orient="auto" refX="0" refY="0" style="overflow:visible"><path id="path15154" d="m 5.77,0 -8.65,5 0,-10 8.65,5 z" transform="matrix(0.4,0,0,0.4,-1.8,0)" style="fill:#fff;fill-rule:evenodd;stroke:#555;stroke-width:1pt;stroke-opacity:1"/></marker><marker style="overflow:visible" id="marker14692" orient="auto" refX="0" refY="0"><path style="fill:#fff;fill-rule:evenodd;stroke:#555;stroke-width:1pt;stroke-opacity:1" id="path14694" d="m 5.77,0 -8.65,5 0,-10 8.65,5 z" transform="matrix(0.4,0,0,0.4,-1.8,0)"/></marker><marker style="overflow:visible" id="marker14238" orient="auto" refX="0" refY="0"><path style="fill:#fff;fill-rule:evenodd;stroke:#555;stroke-width:1pt;stroke-opacity:1" id="path14240" d="m 5.77,0 -8.65,5 0,-10 8.65,5 z" transform="matrix(0.4,0,0,0.4,-1.8,0)"/></marker><marker id="marker13790" orient="auto" refX="0" refY="0" style="overflow:visible"><path id="path13792" d="m 5.77,0 -8.65,5 0,-10 8.65,5 z" transform="matrix(0.4,0,0,0.4,-1.8,0)" style="fill:#fff;fill-rule:evenodd;stroke:#555;stroke-width:1pt;stroke-opacity:1"/></marker><marker style="overflow:visible" id="EmptyTriangleInM" orient="auto" refX="0" refY="0"><path style="fill:#fff;fill-rule:evenodd;stroke:#000;stroke-width:1pt" id="path7945" d="m 5.77,0 -8.65,5 0,-10 8.65,5 z" transform="matrix(-0.4,0,0,-0.4,1.8,0)"/></marker><marker id="marker8343" orient="auto" refX="0" refY="0" style="overflow:visible"><path id="path8345" d="m 5.77,0 -8.65,5 0,-10 8.65,5 z" transform="matrix(-0.4,0,0,-0.4,1.8,0)" style="fill:#fff;fill-rule:evenodd;stroke:#555;stroke-width:1pt;stroke-opacity:1"/></marker><marker style="overflow:visible" id="marker5157" orient="auto" refX="0" refY="0"><path style="fill:#fff;fill-rule:evenodd;stroke:#555;stroke-width:1pt;stroke-opacity:1" id="path5159" d="m 5.77,0 -8.65,5 0,-10 8.65,5 z" transform="matrix(0.4,0,0,0.4,-1.8,0)"/></marker><marker style="overflow:visible" id="marker14860" orient="auto" refX="0" refY="0"><path style="fill:#fff;fill-rule:evenodd;stroke:#555;stroke-width:1pt;stroke-opacity:1" id="path14862" d="m 5.77,0 -8.65,5 0,-10 8.65,5 z" transform="matrix(0.4,0,0,0.4,-1.8,0)"/></marker><marker style="overflow:visible" id="marker11499" orient="auto" refX="0" refY="0"><path style="fill:#fff;fill-rule:evenodd;stroke:#555;stroke-width:1pt;stroke-opacity:1" id="path11501" d="m 5.77,0 -8.65,5 0,-10 8.65,5 z" transform="matrix(0.4,0,0,0.4,-1.8,0)"/></marker><marker style="overflow:visible" id="marker10321" orient="auto" refX="0" refY="0"><path style="fill:#fff;fill-rule:evenodd;stroke:#555;stroke-width:1pt;stroke-opacity:1" id="path10323" d="m 5.77,0 -8.65,5 0,-10 8.65,5 z" transform="matrix(0.4,0,0,0.4,-1.8,0)"/></marker><marker style="overflow:visible" id="marker10257" orient="auto" refX="0" refY="0"><path style="fill:#fff;fill-rule:evenodd;stroke:#555;stroke-width:1pt;stroke-opacity:1" id="path10259" d="m 5.77,0 -8.65,5 0,-10 8.65,5 z" transform="matrix(0.4,0,0,0.4,-1.8,0)"/></marker><marker style="overflow:visible" id="marker5624" orient="auto" refX="0" refY="0"><path style="fill:#fff;fill-rule:evenodd;stroke:#555;stroke-width:1pt;stroke-opacity:1" id="path5626" d="m 5.77,0 -8.65,5 0,-10 8.65,5 z" transform="matrix(0.4,0,0,0.4,-1.8,0)"/></marker><marker style="overflow:visible" id="marker11499-4" orient="auto" refX="0" refY="0"><path style="fill:#fff;fill-rule:evenodd;stroke:#555;stroke-width:1pt;stroke-opacity:1" id="path11501-9" d="m 5.77,0 -8.65,5 0,-10 8.65,5 z" transform="matrix(0.4,0,0,0.4,-1.8,0)"/></marker><marker style="overflow:visible" id="marker11499-4-0" orient="auto" refX="0" refY="0"><path style="fill:#fff;fill-rule:evenodd;stroke:#555;stroke-width:1pt;stroke-opacity:1" id="path11501-9-6" d="m 5.77,0 -8.65,5 0,-10 8.65,5 z" transform="matrix(0.4,0,0,0.4,-1.8,0)"/></marker><marker style="overflow:visible" id="marker11499-4-9" orient="auto" refX="0" refY="0"><path style="fill:#fff;fill-rule:evenodd;stroke:#555;stroke-width:1pt;stroke-opacity:1" id="path11501-9-2" d="m 5.77,0 -8.65,5 0,-10 8.65,5 z" transform="matrix(0.4,0,0,0.4,-1.8,0)"/></marker><marker style="overflow:visible" id="marker14860-6" orient="auto" refX="0" refY="0"><path style="fill:#fff;fill-rule:evenodd;stroke:#555;stroke-width:1pt;stroke-opacity:1" id="path14862-4" d="m 5.77,0 -8.65,5 0,-10 8.65,5 z" transform="matrix(0.4,0,0,0.4,-1.8,0)"/></marker><marker style="overflow:visible" id="marker14860-6-5" orient="auto" refX="0" refY="0"><path style="fill:#fff;fill-rule:evenodd;stroke:#555;stroke-width:1pt;stroke-opacity:1" id="path14862-4-0" d="m 5.77,0 -8.65,5 0,-10 8.65,5 z" transform="matrix(0.4,0,0,0.4,-1.8,0)"/></marker><marker style="overflow:visible" id="marker4530-3" orient="auto" refX="0" refY="0"><path style="fill:#fff;fill-rule:evenodd;stroke:#555;stroke-width:1pt;stroke-opacity:1" id="path4532-6" d="m 5.77,0 -8.65,5 0,-10 8.65,5 z" transform="matrix(0.4,0,0,0.4,-1.8,0)"/></marker><marker style="overflow:visible" id="marker5157-4" orient="auto" refX="0" refY="0"><path style="fill:#fff;fill-rule:evenodd;stroke:#555;stroke-width:1pt;stroke-opacity:1" id="path5159-4" d="m 5.77,0 -8.65,5 0,-10 8.65,5 z" transform="matrix(0.4,0,0,0.4,-1.8,0)"/></marker><marker style="overflow:visible" id="marker5157-4-0" orient="auto" refX="0" refY="0"><path style="fill:#fff;fill-rule:evenodd;stroke:#555;stroke-width:1pt;stroke-opacity:1" id="path5159-4-7" d="m 5.77,0 -8.65,5 0,-10 8.65,5 z" transform="matrix(0.4,0,0,0.4,-1.8,0)"/></marker><marker style="overflow:visible" id="marker5157-4-0-6" orient="auto" refX="0" refY="0"><path style="fill:#fff;fill-rule:evenodd;stroke:#555;stroke-width:1pt;stroke-opacity:1" id="path5159-4-7-8" d="m 5.77,0 -8.65,5 0,-10 8.65,5 z" transform="matrix(0.4,0,0,0.4,-1.8,0)"/></marker><marker style="overflow:visible" id="marker5157-4-0-6-4" orient="auto" refX="0" refY="0"><path style="fill:#fff;fill-rule:evenodd;stroke:#555;stroke-width:1pt;stroke-opacity:1" id="path5159-4-7-8-3" d="m 5.77,0 -8.65,5 0,-10 8.65,5 z" transform="matrix(0.4,0,0,0.4,-1.8,0)"/></marker><marker style="overflow:visible" id="marker14860-6-4" orient="auto" refX="0" refY="0"><path style="fill:#fff;fill-rule:evenodd;stroke:#555;stroke-width:1pt;stroke-opacity:1" id="path14862-4-9" d="m 5.77,0 -8.65,5 0,-10 8.65,5 z" transform="matrix(0.4,0,0,0.4,-1.8,0)"/></marker><marker style="overflow:visible" id="marker14860-6-4-2" orient="auto" refX="0" refY="0"><path style="fill:#fff;fill-rule:evenodd;stroke:#555;stroke-width:1pt;stroke-opacity:1" id="path14862-4-9-0" d="m 5.77,0 -8.65,5 0,-10 8.65,5 z" transform="matrix(0.4,0,0,0.4,-1.8,0)"/></marker><marker style="overflow:visible" id="marker11499-4-0-8" orient="auto" refX="0" refY="0"><path style="fill:#fff;fill-rule:evenodd;stroke:#555;stroke-width:1pt;stroke-opacity:1" id="path11501-9-6-9" d="m 5.77,0 -8.65,5 0,-10 8.65,5 z" transform="matrix(0.4,0,0,0.4,-1.8,0)"/></marker><marker style="overflow:visible" id="marker11499-4-0-8-2" orient="auto" refX="0" refY="0"><path style="fill:#fff;fill-rule:evenodd;stroke:#555;stroke-width:1pt;stroke-opacity:1" id="path11501-9-6-9-6" d="m 5.77,0 -8.65,5 0,-10 8.65,5 z" transform="matrix(0.4,0,0,0.4,-1.8,0)"/></marker><marker style="overflow:visible" id="marker11499-4-0-8-2-4" orient="auto" refX="0" refY="0"><path style="fill:#fff;fill-rule:evenodd;stroke:#555;stroke-width:1pt;stroke-opacity:1" id="path11501-9-6-9-6-9" d="m 5.77,0 -8.65,5 0,-10 8.65,5 z" transform="matrix(0.4,0,0,0.4,-1.8,0)"/></marker><marker style="overflow:visible" id="marker5157-4-0-5" orient="auto" refX="0" refY="0"><path style="fill:#fff;fill-rule:evenodd;stroke:#555;stroke-width:1pt;stroke-opacity:1" id="path5159-4-7-0" d="m 5.77,0 -8.65,5 0,-10 8.65,5 z" transform="matrix(0.4,0,0,0.4,-1.8,0)"/></marker><marker style="overflow:visible" id="marker5157-4-0-8" orient="auto" refX="0" refY="0"><path style="fill:#fff;fill-rule:evenodd;stroke:#555;stroke-width:1pt;stroke-opacity:1" id="path5159-4-7-7" d="m 5.77,0 -8.65,5 0,-10 8.65,5 z" transform="matrix(0.4,0,0,0.4,-1.8,0)"/></marker><marker style="overflow:visible" id="marker5157-4-0-7" orient="auto" refX="0" refY="0"><path style="fill:#fff;fill-rule:evenodd;stroke:#555;stroke-width:1pt;stroke-opacity:1" id="path5159-4-7-2" d="m 5.77,0 -8.65,5 0,-10 8.65,5 z" transform="matrix(0.4,0,0,0.4,-1.8,0)"/></marker><marker style="overflow:visible" id="marker5157-4-0-2" orient="auto" refX="0" refY="0"><path style="fill:#fff;fill-rule:evenodd;stroke:#555;stroke-width:1pt;stroke-opacity:1" id="path5159-4-7-26" d="m 5.77,0 -8.65,5 0,-10 8.65,5 z" transform="matrix(0.4,0,0,0.4,-1.8,0)"/></marker><marker style="overflow:visible" id="marker5157-4-0-61" orient="auto" refX="0" refY="0"><path style="fill:#fff;fill-rule:evenodd;stroke:#555;stroke-width:1pt;stroke-opacity:1" id="path5159-4-7-5" d="m 5.77,0 -8.65,5 0,-10 8.65,5 z" transform="matrix(0.4,0,0,0.4,-1.8,0)"/></marker><marker style="overflow:visible" id="marker5157-4-0-4" orient="auto" refX="0" refY="0"><path style="fill:#fff;fill-rule:evenodd;stroke:#555;stroke-width:1pt;stroke-opacity:1" id="path5159-4-7-9" d="m 5.77,0 -8.65,5 0,-10 8.65,5 z" transform="matrix(0.4,0,0,0.4,-1.8,0)"/></marker><marker style="overflow:visible" id="marker11499-4-0-8-2-9" orient="auto" refX="0" refY="0"><path style="fill:#fff;fill-rule:evenodd;stroke:#555;stroke-width:1pt;stroke-opacity:1" id="path11501-9-6-9-6-1" d="m 5.77,0 -8.65,5 0,-10 8.65,5 z" transform="matrix(0.4,0,0,0.4,-1.8,0)"/></marker><marker style="overflow:visible" id="marker11499-4-0-8-2-9-7" orient="auto" refX="0" refY="0"><path style="fill:#fff;fill-rule:evenodd;stroke:#555;stroke-width:1pt;stroke-opacity:1" id="path11501-9-6-9-6-1-1" d="m 5.77,0 -8.65,5 0,-10 8.65,5 z" transform="matrix(0.4,0,0,0.4,-1.8,0)"/></marker><marker style="overflow:visible" id="marker11499-4-0-8-2-9-5" orient="auto" refX="0" refY="0"><path style="fill:#fff;fill-rule:evenodd;stroke:#555;stroke-width:1pt;stroke-opacity:1" id="path11501-9-6-9-6-1-9" d="m 5.77,0 -8.65,5 0,-10 8.65,5 z" transform="matrix(0.4,0,0,0.4,-1.8,0)"/></marker><marker style="overflow:visible" id="marker11499-4-0-8-2-9-76" orient="auto" refX="0" refY="0"><path style="fill:#fff;fill-rule:evenodd;stroke:#555;stroke-width:1pt;stroke-opacity:1" id="path11501-9-6-9-6-1-7" d="m 5.77,0 -8.65,5 0,-10 8.65,5 z" transform="matrix(0.4,0,0,0.4,-1.8,0)"/></marker><marker style="overflow:visible" id="marker11499-4-0-8-2-9-7-6" orient="auto" refX="0" refY="0"><path style="fill:#fff;fill-rule:evenodd;stroke:#555;stroke-width:1pt;stroke-opacity:1" id="path11501-9-6-9-6-1-1-5" d="m 5.77,0 -8.65,5 0,-10 8.65,5 z" transform="matrix(0.4,0,0,0.4,-1.8,0)"/></marker><marker style="overflow:visible" id="marker11499-4-0-8-2-9-7-3" orient="auto" refX="0" refY="0"><path style="fill:#fff;fill-rule:evenodd;stroke:#555;stroke-width:1pt;stroke-opacity:1" id="path11501-9-6-9-6-1-1-9" d="m 5.77,0 -8.65,5 0,-10 8.65,5 z" transform="matrix(0.4,0,0,0.4,-1.8,0)"/></marker><marker style="overflow:visible" id="marker11499-4-0-8-2-9-7-8" orient="auto" refX="0" refY="0"><path style="fill:#fff;fill-rule:evenodd;stroke:#555;stroke-width:1pt;stroke-opacity:1" id="path11501-9-6-9-6-1-1-1" d="m 5.77,0 -8.65,5 0,-10 8.65,5 z" transform="matrix(0.4,0,0,0.4,-1.8,0)"/></marker><marker style="overflow:visible" id="marker11499-4-0-8-2-9-7-9" orient="auto" refX="0" refY="0"><path style="fill:#fff;fill-rule:evenodd;stroke:#555;stroke-width:1pt;stroke-opacity:1" id="path11501-9-6-9-6-1-1-3" d="m 5.77,0 -8.65,5 0,-10 8.65,5 z" transform="matrix(0.4,0,0,0.4,-1.8,0)"/></marker><marker style="overflow:visible" id="marker14860-6-4-0" orient="auto" refX="0" refY="0"><path style="fill:#fff;fill-rule:evenodd;stroke:#555;stroke-width:1pt;stroke-opacity:1" id="path14862-4-9-8" d="m 5.77,0 -8.65,5 0,-10 8.65,5 z" transform="matrix(0.4,0,0,0.4,-1.8,0)"/></marker><marker style="overflow:visible" id="marker14860-6-4-5" orient="auto" refX="0" refY="0"><path style="fill:#fff;fill-rule:evenodd;stroke:#555;stroke-width:1pt;stroke-opacity:1" id="path14862-4-9-09" d="m 5.77,0 -8.65,5 0,-10 8.65,5 z" transform="matrix(0.4,0,0,0.4,-1.8,0)"/></marker><marker style="overflow:visible" id="marker14860-6-4-8" orient="auto" refX="0" refY="0"><path style="fill:#fff;fill-rule:evenodd;stroke:#555;stroke-width:1pt;stroke-opacity:1" id="path14862-4-9-5" d="m 5.77,0 -8.65,5 0,-10 8.65,5 z" transform="matrix(0.4,0,0,0.4,-1.8,0)"/></marker><marker style="overflow:visible" id="marker14860-6-4-1" orient="auto" refX="0" refY="0"><path style="fill:#fff;fill-rule:evenodd;stroke:#555;stroke-width:1pt;stroke-opacity:1" id="path14862-4-9-59" d="m 5.77,0 -8.65,5 0,-10 8.65,5 z" transform="matrix(0.4,0,0,0.4,-1.8,0)"/></marker><marker style="overflow:visible" id="marker14860-6-4-81" orient="auto" refX="0" refY="0"><path style="fill:#fff;fill-rule:evenodd;stroke:#555;stroke-width:1pt;stroke-opacity:1" id="path14862-4-9-03" d="m 5.77,0 -8.65,5 0,-10 8.65,5 z" transform="matrix(0.4,0,0,0.4,-1.8,0)"/></marker><marker style="overflow:visible" id="marker11499-4-0-8-2-9-7-6-4" orient="auto" refX="0" refY="0"><path style="fill:#fff;fill-rule:evenodd;stroke:#555;stroke-width:1pt;stroke-opacity:1" id="path11501-9-6-9-6-1-1-5-4" d="m 5.77,0 -8.65,5 0,-10 8.65,5 z" transform="matrix(0.4,0,0,0.4,-1.8,0)"/></marker><marker style="overflow:visible" id="marker11499-4-0-8-2-9-7-6-47" orient="auto" refX="0" refY="0"><path style="fill:#fff;fill-rule:evenodd;stroke:#555;stroke-width:1pt;stroke-opacity:1" id="path11501-9-6-9-6-1-1-5-6" d="m 5.77,0 -8.65,5 0,-10 8.65,5 z" transform="matrix(0.4,0,0,0.4,-1.8,0)"/></marker><marker style="overflow:visible" id="marker5157-4-0-2-3" orient="auto" refX="0" refY="0"><path style="fill:#fff;fill-rule:evenodd;stroke:#555;stroke-width:1pt;stroke-opacity:1" id="path5159-4-7-26-6" d="m 5.77,0 -8.65,5 0,-10 8.65,5 z" transform="matrix(0.4,0,0,0.4,-1.8,0)"/></marker><marker style="overflow:visible" id="marker5157-4-0-2-3-5" orient="auto" refX="0" refY="0"><path style="fill:#fff;fill-rule:evenodd;stroke:#555;stroke-width:1pt;stroke-opacity:1" id="path5159-4-7-26-6-3" d="m 5.77,0 -8.65,5 0,-10 8.65,5 z" transform="matrix(0.4,0,0,0.4,-1.8,0)"/></marker><marker style="overflow:visible" id="marker5157-4-0-2-3-5-6" orient="auto" refX="0" refY="0"><path style="fill:#fff;fill-rule:evenodd;stroke:#555;stroke-width:1pt;stroke-opacity:1" id="path5159-4-7-26-6-3-2" d="m 5.77,0 -8.65,5 0,-10 8.65,5 z" transform="matrix(0.4,0,0,0.4,-1.8,0)"/></marker><marker style="overflow:visible" id="marker5157-4-0-2-3-5-1" orient="auto" refX="0" refY="0"><path style="fill:#fff;fill-rule:evenodd;stroke:#555;stroke-width:1pt;stroke-opacity:1" id="path5159-4-7-26-6-3-27" d="m 5.77,0 -8.65,5 0,-10 8.65,5 z" transform="matrix(0.4,0,0,0.4,-1.8,0)"/></marker><marker style="overflow:visible" id="marker5157-4-0-2-3-9" orient="auto" refX="0" refY="0"><path style="fill:#fff;fill-rule:evenodd;stroke:#555;stroke-width:1pt;stroke-opacity:1" id="path5159-4-7-26-6-36" d="m 5.77,0 -8.65,5 0,-10 8.65,5 z" transform="matrix(0.4,0,0,0.4,-1.8,0)"/></marker><marker style="overflow:visible" id="marker5157-4-0-2-3-5-62" orient="auto" refX="0" refY="0"><path style="fill:#fff;fill-rule:evenodd;stroke:#555;stroke-width:1pt;stroke-opacity:1" id="path5159-4-7-26-6-3-6" d="m 5.77,0 -8.65,5 0,-10 8.65,5 z" transform="matrix(0.4,0,0,0.4,-1.8,0)"/></marker><marker style="overflow:visible" id="marker5157-4-0-2-3-9-8" orient="auto" refX="0" refY="0"><path style="fill:#fff;fill-rule:evenodd;stroke:#555;stroke-width:1pt;stroke-opacity:1" id="path5159-4-7-26-6-36-7" d="m 5.77,0 -8.65,5 0,-10 8.65,5 z" transform="matrix(0.4,0,0,0.4,-1.8,0)"/></marker><marker style="overflow:visible" id="marker5157-4-0-2-3-5-62-2" orient="auto" refX="0" refY="0"><path style="fill:#fff;fill-rule:evenodd;stroke:#555;stroke-width:1pt;stroke-opacity:1" id="path5159-4-7-26-6-3-6-0" d="m 5.77,0 -8.65,5 0,-10 8.65,5 z" transform="matrix(0.4,0,0,0.4,-1.8,0)"/></marker><marker style="overflow:visible" id="marker5157-4-0-2-3-5-62-3" orient="auto" refX="0" refY="0"><path style="fill:#fff;fill-rule:evenodd;stroke:#555;stroke-width:1pt;stroke-opacity:1" id="path5159-4-7-26-6-3-6-7" d="m 5.77,0 -8.65,5 0,-10 8.65,5 z" transform="matrix(0.4,0,0,0.4,-1.8,0)"/></marker><marker style="overflow:visible" id="marker11499-4-0-8-2-4-6" orient="auto" refX="0" refY="0"><path style="fill:#fff;fill-rule:evenodd;stroke:#555;stroke-width:1pt;stroke-opacity:1" id="path11501-9-6-9-6-9-8" d="m 5.77,0 -8.65,5 0,-10 8.65,5 z" transform="matrix(0.4,0,0,0.4,-1.8,0)"/></marker><marker style="overflow:visible" id="marker11499-4-0-8-2-8" orient="auto" refX="0" refY="0"><path style="fill:#fff;fill-rule:evenodd;stroke:#555;stroke-width:1pt;stroke-opacity:1" id="path11501-9-6-9-6-4" d="m 5.77,0 -8.65,5 0,-10 8.65,5 z" transform="matrix(0.4,0,0,0.4,-1.8,0)"/></marker><marker style="overflow:visible" id="marker11499-4-0-8-3" orient="auto" refX="0" refY="0"><path style="fill:#fff;fill-rule:evenodd;stroke:#555;stroke-width:1pt;stroke-opacity:1" id="path11501-9-6-9-1" d="m 5.77,0 -8.65,5 0,-10 8.65,5 z" transform="matrix(0.4,0,0,0.4,-1.8,0)"/></marker><marker style="overflow:visible" id="marker14860-6-4-2-4" orient="auto" refX="0" refY="0"><path style="fill:#fff;fill-rule:evenodd;stroke:#555;stroke-width:1pt;stroke-opacity:1" id="path14862-4-9-0-9" d="m 5.77,0 -8.65,5 0,-10 8.65,5 z" transform="matrix(0.4,0,0,0.4,-1.8,0)"/></marker><marker style="overflow:visible" id="marker14860-6-4-20" orient="auto" refX="0" refY="0"><path style="fill:#fff;fill-rule:evenodd;stroke:#555;stroke-width:1pt;stroke-opacity:1" id="path14862-4-9-6" d="m 5.77,0 -8.65,5 0,-10 8.65,5 z" transform="matrix(0.4,0,0,0.4,-1.8,0)"/></marker><marker id="marker8343-8" orient="auto" refX="0" refY="0" style="overflow:visible"><path id="path8345-9" d="m 5.77,0 -8.65,5 0,-10 8.65,5 z" transform="matrix(-0.4,0,0,-0.4,1.8,0)" style="fill:#fff;fill-rule:evenodd;stroke:#555;stroke-width:1pt;stroke-opacity:1"/></marker><marker style="overflow:visible" id="marker5157-4-0-26" orient="auto" refX="0" refY="0"><path style="fill:#fff;fill-rule:evenodd;stroke:#555;stroke-width:1pt;stroke-opacity:1" id="path5159-4-7-6" d="m 5.77,0 -8.65,5 0,-10 8.65,5 z" transform="matrix(0.4,0,0,0.4,-1.8,0)"/></marker><marker style="overflow:visible" id="marker5157-4-0-6-49" orient="auto" refX="0" refY="0"><path style="fill:#fff;fill-rule:evenodd;stroke:#555;stroke-width:1pt;stroke-opacity:1" id="path5159-4-7-8-5" d="m 5.77,0 -8.65,5 0,-10 8.65,5 z" transform="matrix(0.4,0,0,0.4,-1.8,0)"/></marker><marker style="overflow:visible" id="marker5157-4-0-6-4-0" orient="auto" refX="0" refY="0"><path style="fill:#fff;fill-rule:evenodd;stroke:#555;stroke-width:1pt;stroke-opacity:1" id="path5159-4-7-8-3-4" d="m 5.77,0 -8.65,5 0,-10 8.65,5 z" transform="matrix(0.4,0,0,0.4,-1.8,0)"/></marker><marker style="overflow:visible" id="marker5157-4-0-2-3-5-62-7" orient="auto" refX="0" refY="0"><path style="fill:#fff;fill-rule:evenodd;stroke:#555;stroke-width:1pt;stroke-opacity:1" id="path5159-4-7-26-6-3-6-8" d="m 5.77,0 -8.65,5 0,-10 8.65,5 z" transform="matrix(0.4,0,0,0.4,-1.8,0)"/></marker><marker style="overflow:visible" id="marker5157-4-0-2-3-5-62-31" orient="auto" refX="0" refY="0"><path style="fill:#fff;fill-rule:evenodd;stroke:#555;stroke-width:1pt;stroke-opacity:1" id="path5159-4-7-26-6-3-6-9" d="m 5.77,0 -8.65,5 0,-10 8.65,5 z" transform="matrix(0.4,0,0,0.4,-1.8,0)"/></marker><marker style="overflow:visible" id="marker5157-4-0-2-3-5-62-36" orient="auto" refX="0" refY="0"><path style="fill:#fff;fill-rule:evenodd;stroke:#555;stroke-width:1pt;stroke-opacity:1" id="path5159-4-7-26-6-3-6-1" d="m 5.77,0 -8.65,5 0,-10 8.65,5 z" transform="matrix(0.4,0,0,0.4,-1.8,0)"/></marker><marker style="overflow:visible" id="marker5157-4-0-2-3-8" orient="auto" refX="0" refY="0"><path style="fill:#fff;fill-rule:evenodd;stroke:#555;stroke-width:1pt;stroke-opacity:1" id="path5159-4-7-26-6-9" d="m 5.77,0 -8.65,5 0,-10 8.65,5 z" transform="matrix(0.4,0,0,0.4,-1.8,0)"/></marker><marker style="overflow:visible" id="marker5157-4-0-2-3-5-62-22" orient="auto" refX="0" refY="0"><path style="fill:#fff;fill-rule:evenodd;stroke:#555;stroke-width:1pt;stroke-opacity:1" id="path5159-4-7-26-6-3-6-6" d="m 5.77,0 -8.65,5 0,-10 8.65,5 z" transform="matrix(0.4,0,0,0.4,-1.8,0)"/></marker><marker style="overflow:visible" id="marker5157-4-0-2-3-1" orient="auto" refX="0" refY="0"><path style="fill:#fff;fill-rule:evenodd;stroke:#555;stroke-width:1pt;stroke-opacity:1" id="path5159-4-7-26-6-0" d="m 5.77,0 -8.65,5 0,-10 8.65,5 z" transform="matrix(0.4,0,0,0.4,-1.8,0)"/></marker><marker style="overflow:visible" id="marker5157-4-0-2-3-5-6-6" orient="auto" refX="0" refY="0"><path style="fill:#fff;fill-rule:evenodd;stroke:#555;stroke-width:1pt;stroke-opacity:1" id="path5159-4-7-26-6-3-2-1" d="m 5.77,0 -8.65,5 0,-10 8.65,5 z" transform="matrix(0.4,0,0,0.4,-1.8,0)"/></marker><marker style="overflow:visible" id="marker5157-4-0-2-3-5-6-9" orient="auto" refX="0" refY="0"><path style="fill:#fff;fill-rule:evenodd;stroke:#555;stroke-width:1pt;stroke-opacity:1" id="path5159-4-7-26-6-3-2-4" d="m 5.77,0 -8.65,5 0,-10 8.65,5 z" transform="matrix(0.4,0,0,0.4,-1.8,0)"/></marker><marker style="overflow:visible" id="marker5157-4-0-2-3-5-6-7" orient="auto" refX="0" refY="0"><path style="fill:#fff;fill-rule:evenodd;stroke:#555;stroke-width:1pt;stroke-opacity:1" id="path5159-4-7-26-6-3-2-7" d="m 5.77,0 -8.65,5 0,-10 8.65,5 z" transform="matrix(0.4,0,0,0.4,-1.8,0)"/></marker><marker id="marker22558-9" orient="auto" refX="0" refY="0" style="overflow:visible"><path id="path22560-4" d="m 5.77,0 -8.65,5 0,-10 8.65,5 z" transform="matrix(0.4,0,0,0.4,-1.8,0)" style="fill:#fff;fill-rule:evenodd;stroke:#555;stroke-width:1pt;stroke-opacity:1"/></marker><marker id="marker22558-1" orient="auto" refX="0" refY="0" style="overflow:visible"><path id="path22560-2" d="m 5.77,0 -8.65,5 0,-10 8.65,5 z" transform="matrix(0.4,0,0,0.4,-1.8,0)" style="fill:#fff;fill-rule:evenodd;stroke:#555;stroke-width:1pt;stroke-opacity:1"/></marker><marker style="overflow:visible" id="marker5157-4-0-2-3-5-6-3" orient="auto" refX="0" refY="0"><path style="fill:#fff;fill-rule:evenodd;stroke:#555;stroke-width:1.00000003pt;stroke-opacity:1" id="path5159-4-7-26-6-3-2-6" d="M 5.77,0 -2.88,5 V -5 Z" transform="matrix(0.4,0,0,0.4,-1.8,0)"/></marker><marker style="overflow:visible" id="marker5157-4-0-2-3-5-6-5" orient="auto" refX="0" refY="0"><path style="fill:#fff;fill-rule:evenodd;stroke:#555;stroke-width:1.00000003pt;stroke-opacity:1" id="path5159-4-7-26-6-3-2-3" d="M 5.77,0 -2.88,5 V -5 Z" transform="matrix(0.4,0,0,0.4,-1.8,0)"/></marker><marker style="overflow:visible" id="marker5157-4-0-2-3-5-6-62" orient="auto" refX="0" refY="0"><path style="fill:#fff;fill-rule:evenodd;stroke:#555;stroke-width:1.00000003pt;stroke-opacity:1" id="path5159-4-7-26-6-3-2-9" d="M 5.77,0 -2.88,5 V -5 Z" transform="matrix(0.4,0,0,0.4,-1.8,0)"/></marker><marker style="overflow:visible" id="marker5157-4-0-2-3-5-6-2" orient="auto" refX="0" refY="0"><path style="fill:#fff;fill-rule:evenodd;stroke:#555;stroke-width:1.00000003pt;stroke-opacity:1" id="path5159-4-7-26-6-3-2-70" d="M 5.77,0 -2.88,5 V -5 Z" transform="matrix(0.4,0,0,0.4,-1.8,0)"/></marker><marker style="overflow:visible" id="marker5157-4-0-2-3-5-6-2-3" orient="auto" refX="0" refY="0"><path style="fill:#fff;fill-rule:evenodd;stroke:#555;stroke-width:1.00000003pt;stroke-opacity:1" id="path5159-4-7-26-6-3-2-70-6" d="M 5.77,0 -2.88,5 V -5 Z" transform="matrix(0.4,0,0,0.4,-1.8,0)"/></marker><marker style="overflow:visible" id="marker5157-4-0-2-3-5-6-5-0" orient="auto" refX="0" refY="0"><path style="fill:#fff;fill-rule:evenodd;stroke:#555;stroke-width:1.00000003pt;stroke-opacity:1" id="path5159-4-7-26-6-3-2-3-6" d="M 5.77,0 -2.88,5 V -5 Z" transform="matrix(0.4,0,0,0.4,-1.8,0)"/></marker><marker id="marker13790-2" orient="auto" refX="0" refY="0" style="overflow:visible"><path id="path13792-6" d="M 5.77,0 -2.88,5 V -5 Z" transform="matrix(0.4,0,0,0.4,-1.8,0)" style="fill:#fff;fill-rule:evenodd;stroke:#555;stroke-width:1.00000003pt;stroke-opacity:1"/></marker><marker style="overflow:visible" id="marker5157-1" orient="auto" refX="0" refY="0"><path style="fill:#fff;fill-rule:evenodd;stroke:#555;stroke-width:1.00000003pt;stroke-opacity:1" id="path5159-8" d="M 5.77,0 -2.88,5 V -5 Z" transform="matrix(0.4,0,0,0.4,-1.8,0)"/></marker><marker style="overflow:visible" id="marker5157-4-0-2-3-5-6-79" orient="auto" refX="0" refY="0"><path style="fill:#fff;fill-rule:evenodd;stroke:#555;stroke-width:1.00000003pt;stroke-opacity:1" id="path5159-4-7-26-6-3-2-2" d="M 5.77,0 -2.88,5 V -5 Z" transform="matrix(0.4,0,0,0.4,-1.8,0)"/></marker><marker id="marker22558-9-8" orient="auto" refX="0" refY="0" style="overflow:visible"><path id="path22560-4-4" d="M 5.77,0 -2.88,5 V -5 Z" transform="matrix(0.4,0,0,0.4,-1.8,0)" style="fill:#fff;fill-rule:evenodd;stroke:#555;stroke-width:1.00000003pt;stroke-opacity:1"/></marker><marker id="marker22558-9-2" orient="auto" refX="0" refY="0" style="overflow:visible"><path id="path22560-4-6" d="M 5.77,0 -2.88,5 V -5 Z" transform="matrix(0.4,0,0,0.4,-1.8,0)" style="fill:#fff;fill-rule:evenodd;stroke:#555;stroke-width:1.00000003pt;stroke-opacity:1"/></marker><marker id="marker22558-9-2-4" orient="auto" refX="0" refY="0" style="overflow:visible"><path id="path22560-4-6-9" d="M 5.77,0 -2.88,5 V -5 Z" transform="matrix(0.4,0,0,0.4,-1.8,0)" style="fill:#fff;fill-rule:evenodd;stroke:#555;stroke-width:1.00000003pt;stroke-opacity:1"/></marker><marker id="marker22558-9-0" orient="auto" refX="0" refY="0" style="overflow:visible"><path id="path22560-4-48" d="M 5.77,0 -2.88,5 V -5 Z" transform="matrix(0.4,0,0,0.4,-1.8,0)" style="fill:#fff;fill-rule:evenodd;stroke:#555;stroke-width:1.00000003pt;stroke-opacity:1"/></marker><marker id="marker22558-9-0-1" orient="auto" refX="0" refY="0" style="overflow:visible"><path id="path22560-4-48-7" d="M 5.77,0 -2.88,5 V -5 Z" transform="matrix(0.4,0,0,0.4,-1.8,0)" style="fill:#fff;fill-rule:evenodd;stroke:#555;stroke-width:1.00000003pt;stroke-opacity:1"/></marker><marker id="marker22558-9-3" orient="auto" refX="0" refY="0" style="overflow:visible"><path id="path22560-4-67" d="M 5.77,0 -2.88,5 V -5 Z" transform="matrix(0.4,0,0,0.4,-1.8,0)" style="fill:#fff;fill-rule:evenodd;stroke:#555;stroke-width:1.00000003pt;stroke-opacity:1"/></marker><marker id="marker13790-7" orient="auto" refX="0" refY="0" style="overflow:visible"><path id="path13792-5" d="M 5.77,0 -2.88,5 V -5 Z" transform="matrix(0.4,0,0,0.4,-1.8,0)" style="fill:#fff;fill-rule:evenodd;stroke:#555;stroke-width:1.00000003pt;stroke-opacity:1"/></marker><marker id="marker22558-9-3-3" orient="auto" refX="0" refY="0" style="overflow:visible"><path id="path22560-4-67-6" d="M 5.77,0 -2.88,5 V -5 Z" transform="matrix(0.4,0,0,0.4,-1.8,0)" style="fill:#fff;fill-rule:evenodd;stroke:#555;stroke-width:1.00000003pt;stroke-opacity:1"/></marker><marker id="marker13790-7-0" orient="auto" refX="0" refY="0" style="overflow:visible"><path id="path13792-5-2" d="M 5.77,0 -2.88,5 V -5 Z" transform="matrix(0.4,0,0,0.4,-1.8,0)" style="fill:#fff;fill-rule:evenodd;stroke:#555;stroke-width:1.00000003pt;stroke-opacity:1"/></marker><marker id="marker13790-7-03" orient="auto" refX="0" refY="0" style="overflow:visible"><path id="path13792-5-6" d="M 5.77,0 -2.88,5 V -5 Z" transform="matrix(0.4,0,0,0.4,-1.8,0)" style="fill:#fff;fill-rule:evenodd;stroke:#555;stroke-width:1.00000003pt;stroke-opacity:1"/></marker><marker id="marker22558-9-3-3-3" orient="auto" refX="0" refY="0" style="overflow:visible"><path id="path22560-4-67-6-6" d="M 5.77,0 -2.88,5 V -5 Z" transform="matrix(0.4,0,0,0.4,-1.8,0)" style="fill:#fff;fill-rule:evenodd;stroke:#555;stroke-width:1.00000003pt;stroke-opacity:1"/></marker><marker id="marker13790-75" orient="auto" refX="0" refY="0" style="overflow:visible"><path id="path13792-3" d="M 5.77,0 -2.88,5 V -5 Z" transform="matrix(0.4,0,0,0.4,-1.8,0)" style="fill:#fff;fill-rule:evenodd;stroke:#555;stroke-width:1.00000003pt;stroke-opacity:1"/></marker></defs><metadata id="metadata4705"/><g style="display:inline" id="layer2" transform="translate(6.7151641,24.379343)"><flowRoot id="flowRoot4018" transform="matrix(0.9375,0,0,0.9375,-21.335982,7.7864617)" xml:space="preserve" style="font-style:normal;font-weight:400;font-size:40px;line-height:1.25;font-family:sans-serif;letter-spacing:0;word-spacing:0;fill:#000;fill-opacity:1;stroke:none"><flowRegion id="flowRegion4020"><rect id="rect4022" width="594.19" height="66.281" x="38.209" y="251.629"/></flowRegion><flowPara id="flowPara4024"/></flowRoot><flowRoot style="font-style:normal;font-weight:400;line-height:.01%;font-family:sans-serif;letter-spacing:0;word-spacing:0;display:inline;fill:#000;fill-opacity:1;stroke:none;stroke-width:1px;stroke-linecap:butt;stroke-linejoin:miter;stroke-opacity:1" id="flowRoot11756-9-7-3" transform="translate(-582.3846,-119.6458)" xml:space="preserve"><flowRegion id="flowRegion11758-2-5-7"><rect id="rect11760-2-3-5" width="170" height="54.286" x="763.571" y="281.425"/></flowRegion><flowPara style="font-size:15px;line-height:1.25" id="flowPara11762-8-5-9">INPUT_WORK</flowPara></flowRoot><path id="path8629-6-28-0-1-2-0-3-3-8-10-7-5-1-29" d="m 180.78597,144.82239 106.98988,0.0865" style="display:inline;fill:none;fill-rule:evenodd;stroke:#555;stroke-width:2.8125;stroke-linecap:butt;stroke-linejoin:miter;stroke-miterlimit:4;stroke-dasharray:none;stroke-opacity:1;marker-end:url(#marker13790-75)"/><path style="display:inline;fill:none;fill-rule:evenodd;stroke:red;stroke-width:2.8125;stroke-linecap:butt;stroke-linejoin:miter;stroke-miterlimit:4;stroke-dasharray:11.25000046,2.81250011;stroke-dashoffset:0;stroke-opacity:1;marker-end:url(#marker22558-9-3-3-3)" id="path11457-2-8-8-7" d="M 331.53475,102.83543 C 269.26226,52.402559 229.74312,57.470937 158.1018,113.38302"/><g style="display:inline" id="g8196" transform="matrix(1.141397,0,0,1.2207924,-125.16039,-105.62397)"><g id="g16522" transform="translate(5.502549,137.06191)"><rect style="display:inline;fill:#e38851;fill-opacity:1;stroke:none;stroke-width:1.41695988;stroke-miterlimit:4;stroke-dasharray:none;stroke-dashoffset:0;stroke-opacity:1" id="rect9997-8-8-8" width="78.711" height="78.711" x="298.305" y="-280.162" transform="matrix(0.73046081,0.68295461,-0.73046081,0.68295461,0,0)"/><flowRoot id="flowRoot9999-4-8-7" transform="matrix(0.81310678,0,0,0.76022563,85.665752,-162.73916)" xml:space="preserve" style="font-style:normal;font-weight:400;line-height:.01%;font-family:sans-serif;letter-spacing:0;word-spacing:0;display:inline;fill:#000;fill-opacity:1;stroke:none;stroke-width:1px;stroke-linecap:butt;stroke-linejoin:miter;stroke-opacity:1"><flowRegion id="flowRegion10001-4-4-1"><rect id="rect10003-3-3-7" width="140" height="160" x="380" y="269.505"/></flowRegion><flowPara id="flowPara10005-0-1-2" style="font-style:normal;font-variant:normal;font-weight:700;font-stretch:normal;font-size:63.59529114px;line-height:1.25;font-family:'Myriad Pro';-inkscape-font-specification:'Myriad Pro Bold'">W</flowPara></flowRoot></g></g><ellipse id="path318-0-3" cx="-363.415" cy="142.451" rx="50.6" ry="50.6" transform="scale(-1,1)" style="display:inline;fill:none;fill-opacity:1;stroke:red;stroke-width:2.8125;stroke-miterlimit:4;stroke-dasharray:11.25000046,2.81250011;stroke-dashoffset:0;stroke-opacity:1"/><g id="g13271-6-6-1" transform="matrix(0.9375,0,0,0.9375,-263.15752,97.962898)" style="display:inline"><g id="g6540-0-2-0" transform="translate(321.42857,-475.71428)"><circle id="path7355-6-2-2-6-6-9-6" cx="86.11" cy="523.546" r="50" style="display:inline;fill:#8cd499;fill-opacity:1;stroke:none;stroke-width:2.5;stroke-miterlimit:4;stroke-dasharray:none;stroke-dashoffset:0;stroke-opacity:1"/><flowRoot style="font-style:normal;font-weight:400;line-height:.01%;font-family:sans-serif;letter-spacing:0;word-spacing:0;fill:#000;fill-opacity:1;stroke:none;stroke-width:1px;stroke-linecap:butt;stroke-linejoin:miter;stroke-opacity:1" id="flowRoot5316-9-0-2-26-1-3" transform="translate(-318.50263,221.68956)" xml:space="preserve"><flowRegion id="flowRegion5318-1-23-91-1-2-2"><rect id="rect5320-2-7-2-8-7-0" width="140" height="160" x="380" y="269.505"/></flowRegion><flowPara style="font-style:normal;font-variant:normal;font-weight:700;font-stretch:normal;font-size:60px;line-height:1.25;font-family:'Myriad Pro';-inkscape-font-specification:'Myriad Pro Bold'" id="flowPara5322-7-5-70-7-0-6">D</flowPara></flowRoot></g></g></g></svg>