<svg xmlns="http://www.w3.org/2000/svg" xmlns:svg="http://www.w3.org/2000/svg" id="svg4700" width="250mm" height="100mm" version="1.1" viewBox="0 0 885.827 354.331"><defs id="defs4702"><marker style="overflow:visible" id="EmptyTriangleInM" orient="auto" refX="0" refY="0"><path style="fill:#fff;fill-rule:evenodd;stroke:#000;stroke-width:1pt" id="path7945" d="m 5.77,0 -8.65,5 0,-10 8.65,5 z" transform="matrix(-0.4,0,0,-0.4,1.8,0)"/></marker><marker id="marker8343" orient="auto" refX="0" refY="0" style="overflow:visible"><path id="path8345" d="m 5.77,0 -8.65,5 0,-10 8.65,5 z" transform="matrix(-0.4,0,0,-0.4,1.8,0)" style="fill:#fff;fill-rule:evenodd;stroke:#555;stroke-width:1pt;stroke-opacity:1"/></marker><marker style="overflow:visible" id="marker5157" orient="auto" refX="0" refY="0"><path style="fill:#fff;fill-rule:evenodd;stroke:#555;stroke-width:1pt;stroke-opacity:1" id="path5159" d="m 5.77,0 -8.65,5 0,-10 8.65,5 z" transform="matrix(0.4,0,0,0.4,-1.8,0)"/></marker><marker style="overflow:visible" id="marker14860" orient="auto" refX="0" refY="0"><path style="fill:#fff;fill-rule:evenodd;stroke:#555;stroke-width:1pt;stroke-opacity:1" id="path14862" d="m 5.77,0 -8.65,5 0,-10 8.65,5 z" transform="matrix(0.4,0,0,0.4,-1.8,0)"/></marker><marker style="overflow:visible" id="marker11499" orient="auto" refX="0" refY="0"><path style="fill:#fff;fill-rule:evenodd;stroke:#555;stroke-width:1pt;stroke-opacity:1" id="path11501" d="m 5.77,0 -8.65,5 0,-10 8.65,5 z" transform="matrix(0.4,0,0,0.4,-1.8,0)"/></marker><marker style="overflow:visible" id="marker10321" orient="auto" refX="0" refY="0"><path style="fill:#fff;fill-rule:evenodd;stroke:#555;stroke-width:1pt;stroke-opacity:1" id="path10323" d="m 5.77,0 -8.65,5 0,-10 8.65,5 z" transform="matrix(0.4,0,0,0.4,-1.8,0)"/></marker><marker style="overflow:visible" id="marker10257" orient="auto" refX="0" refY="0"><path style="fill:#fff;fill-rule:evenodd;stroke:#555;stroke-width:1pt;stroke-opacity:1" id="path10259" d="m 5.77,0 -8.65,5 0,-10 8.65,5 z" transform="matrix(0.4,0,0,0.4,-1.8,0)"/></marker><marker style="overflow:visible" id="marker5624" orient="auto" refX="0" refY="0"><path style="fill:#fff;fill-rule:evenodd;stroke:#555;stroke-width:1pt;stroke-opacity:1" id="path5626" d="m 5.77,0 -8.65,5 0,-10 8.65,5 z" transform="matrix(0.4,0,0,0.4,-1.8,0)"/></marker><marker style="overflow:visible" id="marker11499-4" orient="auto" refX="0" refY="0"><path style="fill:#fff;fill-rule:evenodd;stroke:#555;stroke-width:1pt;stroke-opacity:1" id="path11501-9" d="m 5.77,0 -8.65,5 0,-10 8.65,5 z" transform="matrix(0.4,0,0,0.4,-1.8,0)"/></marker><marker style="overflow:visible" id="marker11499-4-0" orient="auto" refX="0" refY="0"><path style="fill:#fff;fill-rule:evenodd;stroke:#555;stroke-width:1pt;stroke-opacity:1" id="path11501-9-6" d="m 5.77,0 -8.65,5 0,-10 8.65,5 z" transform="matrix(0.4,0,0,0.4,-1.8,0)"/></marker><marker style="overflow:visible" id="marker11499-4-9" orient="auto" refX="0" refY="0"><path style="fill:#fff;fill-rule:evenodd;stroke:#555;stroke-width:1pt;stroke-opacity:1" id="path11501-9-2" d="m 5.77,0 -8.65,5 0,-10 8.65,5 z" transform="matrix(0.4,0,0,0.4,-1.8,0)"/></marker><marker style="overflow:visible" id="marker14860-6" orient="auto" refX="0" refY="0"><path style="fill:#fff;fill-rule:evenodd;stroke:#555;stroke-width:1pt;stroke-opacity:1" id="path14862-4" d="m 5.77,0 -8.65,5 0,-10 8.65,5 z" transform="matrix(0.4,0,0,0.4,-1.8,0)"/></marker><marker style="overflow:visible" id="marker14860-6-5" orient="auto" refX="0" refY="0"><path style="fill:#fff;fill-rule:evenodd;stroke:#555;stroke-width:1pt;stroke-opacity:1" id="path14862-4-0" d="m 5.77,0 -8.65,5 0,-10 8.65,5 z" transform="matrix(0.4,0,0,0.4,-1.8,0)"/></marker><marker style="overflow:visible" id="marker4530-3" orient="auto" refX="0" refY="0"><path style="fill:#fff;fill-rule:evenodd;stroke:#555;stroke-width:1pt;stroke-opacity:1" id="path4532-6" d="m 5.77,0 -8.65,5 0,-10 8.65,5 z" transform="matrix(0.4,0,0,0.4,-1.8,0)"/></marker><marker style="overflow:visible" id="marker5157-4" orient="auto" refX="0" refY="0"><path style="fill:#fff;fill-rule:evenodd;stroke:#555;stroke-width:1pt;stroke-opacity:1" id="path5159-4" d="m 5.77,0 -8.65,5 0,-10 8.65,5 z" transform="matrix(0.4,0,0,0.4,-1.8,0)"/></marker><marker style="overflow:visible" id="marker5157-4-0" orient="auto" refX="0" refY="0"><path style="fill:#fff;fill-rule:evenodd;stroke:#555;stroke-width:1pt;stroke-opacity:1" id="path5159-4-7" d="m 5.77,0 -8.65,5 0,-10 8.65,5 z" transform="matrix(0.4,0,0,0.4,-1.8,0)"/></marker><marker style="overflow:visible" id="marker5157-4-0-6" orient="auto" refX="0" refY="0"><path style="fill:#fff;fill-rule:evenodd;stroke:#555;stroke-width:1pt;stroke-opacity:1" id="path5159-4-7-8" d="m 5.77,0 -8.65,5 0,-10 8.65,5 z" transform="matrix(0.4,0,0,0.4,-1.8,0)"/></marker><marker style="overflow:visible" id="marker5157-4-0-6-4" orient="auto" refX="0" refY="0"><path style="fill:#fff;fill-rule:evenodd;stroke:#555;stroke-width:1pt;stroke-opacity:1" id="path5159-4-7-8-3" d="m 5.77,0 -8.65,5 0,-10 8.65,5 z" transform="matrix(0.4,0,0,0.4,-1.8,0)"/></marker><marker style="overflow:visible" id="marker14860-6-4" orient="auto" refX="0" refY="0"><path style="fill:#fff;fill-rule:evenodd;stroke:#555;stroke-width:1pt;stroke-opacity:1" id="path14862-4-9" d="m 5.77,0 -8.65,5 0,-10 8.65,5 z" transform="matrix(0.4,0,0,0.4,-1.8,0)"/></marker><marker style="overflow:visible" id="marker14860-6-4-2" orient="auto" refX="0" refY="0"><path style="fill:#fff;fill-rule:evenodd;stroke:#555;stroke-width:1pt;stroke-opacity:1" id="path14862-4-9-0" d="m 5.77,0 -8.65,5 0,-10 8.65,5 z" transform="matrix(0.4,0,0,0.4,-1.8,0)"/></marker><marker style="overflow:visible" id="marker11499-4-0-8" orient="auto" refX="0" refY="0"><path style="fill:#fff;fill-rule:evenodd;stroke:#555;stroke-width:1pt;stroke-opacity:1" id="path11501-9-6-9" d="m 5.77,0 -8.65,5 0,-10 8.65,5 z" transform="matrix(0.4,0,0,0.4,-1.8,0)"/></marker><marker style="overflow:visible" id="marker11499-4-0-8-2" orient="auto" refX="0" refY="0"><path style="fill:#fff;fill-rule:evenodd;stroke:#555;stroke-width:1pt;stroke-opacity:1" id="path11501-9-6-9-6" d="m 5.77,0 -8.65,5 0,-10 8.65,5 z" transform="matrix(0.4,0,0,0.4,-1.8,0)"/></marker><marker style="overflow:visible" id="marker11499-4-0-8-2-4" orient="auto" refX="0" refY="0"><path style="fill:#fff;fill-rule:evenodd;stroke:#555;stroke-width:1pt;stroke-opacity:1" id="path11501-9-6-9-6-9" d="m 5.77,0 -8.65,5 0,-10 8.65,5 z" transform="matrix(0.4,0,0,0.4,-1.8,0)"/></marker><marker style="overflow:visible" id="marker5157-4-0-5" orient="auto" refX="0" refY="0"><path style="fill:#fff;fill-rule:evenodd;stroke:#555;stroke-width:1pt;stroke-opacity:1" id="path5159-4-7-0" d="m 5.77,0 -8.65,5 0,-10 8.65,5 z" transform="matrix(0.4,0,0,0.4,-1.8,0)"/></marker><marker style="overflow:visible" id="marker5157-4-0-8" orient="auto" refX="0" refY="0"><path style="fill:#fff;fill-rule:evenodd;stroke:#555;stroke-width:1pt;stroke-opacity:1" id="path5159-4-7-7" d="m 5.77,0 -8.65,5 0,-10 8.65,5 z" transform="matrix(0.4,0,0,0.4,-1.8,0)"/></marker><marker style="overflow:visible" id="marker5157-4-0-7" orient="auto" refX="0" refY="0"><path style="fill:#fff;fill-rule:evenodd;stroke:#555;stroke-width:1pt;stroke-opacity:1" id="path5159-4-7-2" d="m 5.77,0 -8.65,5 0,-10 8.65,5 z" transform="matrix(0.4,0,0,0.4,-1.8,0)"/></marker><marker style="overflow:visible" id="marker5157-4-0-2" orient="auto" refX="0" refY="0"><path style="fill:#fff;fill-rule:evenodd;stroke:#555;stroke-width:1pt;stroke-opacity:1" id="path5159-4-7-26" d="m 5.77,0 -8.65,5 0,-10 8.65,5 z" transform="matrix(0.4,0,0,0.4,-1.8,0)"/></marker><marker style="overflow:visible" id="marker5157-4-0-61" orient="auto" refX="0" refY="0"><path style="fill:#fff;fill-rule:evenodd;stroke:#555;stroke-width:1pt;stroke-opacity:1" id="path5159-4-7-5" d="m 5.77,0 -8.65,5 0,-10 8.65,5 z" transform="matrix(0.4,0,0,0.4,-1.8,0)"/></marker><marker style="overflow:visible" id="marker5157-4-0-4" orient="auto" refX="0" refY="0"><path style="fill:#fff;fill-rule:evenodd;stroke:#555;stroke-width:1pt;stroke-opacity:1" id="path5159-4-7-9" d="m 5.77,0 -8.65,5 0,-10 8.65,5 z" transform="matrix(0.4,0,0,0.4,-1.8,0)"/></marker><marker style="overflow:visible" id="marker11499-4-0-8-2-9" orient="auto" refX="0" refY="0"><path style="fill:#fff;fill-rule:evenodd;stroke:#555;stroke-width:1pt;stroke-opacity:1" id="path11501-9-6-9-6-1" d="m 5.77,0 -8.65,5 0,-10 8.65,5 z" transform="matrix(0.4,0,0,0.4,-1.8,0)"/></marker><marker style="overflow:visible" id="marker11499-4-0-8-2-9-7" orient="auto" refX="0" refY="0"><path style="fill:#fff;fill-rule:evenodd;stroke:#555;stroke-width:1pt;stroke-opacity:1" id="path11501-9-6-9-6-1-1" d="m 5.77,0 -8.65,5 0,-10 8.65,5 z" transform="matrix(0.4,0,0,0.4,-1.8,0)"/></marker><marker style="overflow:visible" id="marker11499-4-0-8-2-9-5" orient="auto" refX="0" refY="0"><path style="fill:#fff;fill-rule:evenodd;stroke:#555;stroke-width:1pt;stroke-opacity:1" id="path11501-9-6-9-6-1-9" d="m 5.77,0 -8.65,5 0,-10 8.65,5 z" transform="matrix(0.4,0,0,0.4,-1.8,0)"/></marker><marker style="overflow:visible" id="marker11499-4-0-8-2-9-76" orient="auto" refX="0" refY="0"><path style="fill:#fff;fill-rule:evenodd;stroke:#555;stroke-width:1pt;stroke-opacity:1" id="path11501-9-6-9-6-1-7" d="m 5.77,0 -8.65,5 0,-10 8.65,5 z" transform="matrix(0.4,0,0,0.4,-1.8,0)"/></marker><marker style="overflow:visible" id="marker11499-4-0-8-2-9-7-6" orient="auto" refX="0" refY="0"><path style="fill:#fff;fill-rule:evenodd;stroke:#555;stroke-width:1pt;stroke-opacity:1" id="path11501-9-6-9-6-1-1-5" d="m 5.77,0 -8.65,5 0,-10 8.65,5 z" transform="matrix(0.4,0,0,0.4,-1.8,0)"/></marker><marker style="overflow:visible" id="marker11499-4-0-8-2-9-7-3" orient="auto" refX="0" refY="0"><path style="fill:#fff;fill-rule:evenodd;stroke:#555;stroke-width:1pt;stroke-opacity:1" id="path11501-9-6-9-6-1-1-9" d="m 5.77,0 -8.65,5 0,-10 8.65,5 z" transform="matrix(0.4,0,0,0.4,-1.8,0)"/></marker><marker style="overflow:visible" id="marker11499-4-0-8-2-9-7-8" orient="auto" refX="0" refY="0"><path style="fill:#fff;fill-rule:evenodd;stroke:#555;stroke-width:1pt;stroke-opacity:1" id="path11501-9-6-9-6-1-1-1" d="m 5.77,0 -8.65,5 0,-10 8.65,5 z" transform="matrix(0.4,0,0,0.4,-1.8,0)"/></marker><marker style="overflow:visible" id="marker11499-4-0-8-2-9-7-9" orient="auto" refX="0" refY="0"><path style="fill:#fff;fill-rule:evenodd;stroke:#555;stroke-width:1pt;stroke-opacity:1" id="path11501-9-6-9-6-1-1-3" d="m 5.77,0 -8.65,5 0,-10 8.65,5 z" transform="matrix(0.4,0,0,0.4,-1.8,0)"/></marker><marker style="overflow:visible" id="marker14860-6-4-0" orient="auto" refX="0" refY="0"><path style="fill:#fff;fill-rule:evenodd;stroke:#555;stroke-width:1pt;stroke-opacity:1" id="path14862-4-9-8" d="m 5.77,0 -8.65,5 0,-10 8.65,5 z" transform="matrix(0.4,0,0,0.4,-1.8,0)"/></marker><marker style="overflow:visible" id="marker14860-6-4-5" orient="auto" refX="0" refY="0"><path style="fill:#fff;fill-rule:evenodd;stroke:#555;stroke-width:1pt;stroke-opacity:1" id="path14862-4-9-09" d="m 5.77,0 -8.65,5 0,-10 8.65,5 z" transform="matrix(0.4,0,0,0.4,-1.8,0)"/></marker><marker style="overflow:visible" id="marker14860-6-4-8" orient="auto" refX="0" refY="0"><path style="fill:#fff;fill-rule:evenodd;stroke:#555;stroke-width:1pt;stroke-opacity:1" id="path14862-4-9-5" d="m 5.77,0 -8.65,5 0,-10 8.65,5 z" transform="matrix(0.4,0,0,0.4,-1.8,0)"/></marker><marker style="overflow:visible" id="marker14860-6-4-1" orient="auto" refX="0" refY="0"><path style="fill:#fff;fill-rule:evenodd;stroke:#555;stroke-width:1pt;stroke-opacity:1" id="path14862-4-9-59" d="m 5.77,0 -8.65,5 0,-10 8.65,5 z" transform="matrix(0.4,0,0,0.4,-1.8,0)"/></marker><marker style="overflow:visible" id="marker14860-6-4-81" orient="auto" refX="0" refY="0"><path style="fill:#fff;fill-rule:evenodd;stroke:#555;stroke-width:1pt;stroke-opacity:1" id="path14862-4-9-03" d="m 5.77,0 -8.65,5 0,-10 8.65,5 z" transform="matrix(0.4,0,0,0.4,-1.8,0)"/></marker><marker style="overflow:visible" id="marker11499-4-0-8-2-9-7-6-4" orient="auto" refX="0" refY="0"><path style="fill:#fff;fill-rule:evenodd;stroke:#555;stroke-width:1pt;stroke-opacity:1" id="path11501-9-6-9-6-1-1-5-4" d="m 5.77,0 -8.65,5 0,-10 8.65,5 z" transform="matrix(0.4,0,0,0.4,-1.8,0)"/></marker><marker style="overflow:visible" id="marker11499-4-0-8-2-9-7-6-47" orient="auto" refX="0" refY="0"><path style="fill:#fff;fill-rule:evenodd;stroke:#555;stroke-width:1pt;stroke-opacity:1" id="path11501-9-6-9-6-1-1-5-6" d="m 5.77,0 -8.65,5 0,-10 8.65,5 z" transform="matrix(0.4,0,0,0.4,-1.8,0)"/></marker><marker style="overflow:visible" id="marker5157-4-0-2-3" orient="auto" refX="0" refY="0"><path style="fill:#fff;fill-rule:evenodd;stroke:#555;stroke-width:1pt;stroke-opacity:1" id="path5159-4-7-26-6" d="m 5.77,0 -8.65,5 0,-10 8.65,5 z" transform="matrix(0.4,0,0,0.4,-1.8,0)"/></marker><marker style="overflow:visible" id="marker5157-4-0-2-3-5" orient="auto" refX="0" refY="0"><path style="fill:#fff;fill-rule:evenodd;stroke:#555;stroke-width:1pt;stroke-opacity:1" id="path5159-4-7-26-6-3" d="m 5.77,0 -8.65,5 0,-10 8.65,5 z" transform="matrix(0.4,0,0,0.4,-1.8,0)"/></marker><marker style="overflow:visible" id="marker5157-4-0-2-3-5-6" orient="auto" refX="0" refY="0"><path style="fill:#fff;fill-rule:evenodd;stroke:#555;stroke-width:1pt;stroke-opacity:1" id="path5159-4-7-26-6-3-2" d="m 5.77,0 -8.65,5 0,-10 8.65,5 z" transform="matrix(0.4,0,0,0.4,-1.8,0)"/></marker><marker style="overflow:visible" id="marker5157-4-0-2-3-5-1" orient="auto" refX="0" refY="0"><path style="fill:#fff;fill-rule:evenodd;stroke:#555;stroke-width:1pt;stroke-opacity:1" id="path5159-4-7-26-6-3-27" d="m 5.77,0 -8.65,5 0,-10 8.65,5 z" transform="matrix(0.4,0,0,0.4,-1.8,0)"/></marker></defs><metadata id="metadata4705"/><g style="display:inline" id="layer2" transform="translate(21.335982,-7.7864617)"><g id="g18590" transform="translate(273.25279,-120.95935)"><rect style="display:inline;fill:#e38851;fill-opacity:1;stroke:none;stroke-width:1.41695988;stroke-miterlimit:4;stroke-dasharray:none;stroke-dashoffset:0;stroke-opacity:1" id="rect9997-8-8" width="100" height="100" x="316.335" y="114.305" transform="matrix(0.70710678,0.70710678,-0.70710678,0.70710678,0,0)"/><flowRoot id="flowRoot9999-4-8" transform="translate(-262.49629,83.764759)" xml:space="preserve" style="font-style:normal;font-weight:400;font-size:40px;line-height:125%;font-family:sans-serif;letter-spacing:0;word-spacing:0;display:inline;fill:#000;fill-opacity:1;stroke:none;stroke-width:1px;stroke-linecap:butt;stroke-linejoin:miter;stroke-opacity:1"><flowRegion id="flowRegion10001-4-4"><rect id="rect10003-3-3" width="140" height="160" x="380" y="269.505"/></flowRegion><flowPara id="flowPara10005-0-1" style="font-style:normal;font-variant:normal;font-weight:700;font-stretch:normal;font-size:40px;font-family:'Myriad Pro';-inkscape-font-specification:'Myriad Pro Bold'">W<flowSpan style="font-weight:400;font-size:32.5px;baseline-shift:sub" id="flowSpan18588">1</flowSpan></flowPara></flowRoot></g><g id="g6540" transform="translate(190,-424.28571)"><circle style="display:inline;fill:#8cd499;fill-opacity:1;stroke:none;stroke-width:2.5;stroke-miterlimit:4;stroke-dasharray:none;stroke-dashoffset:0;stroke-opacity:1" id="path7355-6-2-2-6" cx="86.11" cy="523.546" r="50"/><flowRoot id="flowRoot5316-9-0-2" transform="translate(-314.33255,232.36988)" xml:space="preserve" style="font-style:normal;font-weight:400;font-size:40px;line-height:125%;font-family:sans-serif;letter-spacing:0;word-spacing:0;fill:#000;fill-opacity:1;stroke:none;stroke-width:1px;stroke-linecap:butt;stroke-linejoin:miter;stroke-opacity:1"><flowRegion id="flowRegion5318-1-23-91"><rect id="rect5320-2-7-2" width="140" height="160" x="380" y="269.505"/></flowRegion><flowPara id="flowPara5322-7-5-70" style="font-style:normal;font-variant:normal;font-weight:700;font-stretch:normal;font-size:40px;font-family:'Myriad Pro';-inkscape-font-specification:'Myriad Pro Bold'">D<flowSpan style="font-style:normal;font-variant:normal;font-weight:400;font-stretch:normal;font-size:32.5px;font-family:'Myriad Pro';-inkscape-font-specification:'Myriad Pro';baseline-shift:sub" id="flowSpan5324-0-9-9">1</flowSpan></flowPara></flowRoot></g><g id="g6548" transform="translate(329.99998,-537.14289)"><circle style="display:inline;fill:#8cd499;fill-opacity:1;stroke:none;stroke-width:2.5;stroke-miterlimit:4;stroke-dasharray:none;stroke-dashoffset:0;stroke-opacity:1" id="path7355-6-6-6" cx="86.11" cy="636.403" r="50"/><flowRoot id="flowRoot5316-0-0" transform="translate(-316.5913,345.22703)" xml:space="preserve" style="font-style:normal;font-weight:400;font-size:40px;line-height:125%;font-family:sans-serif;letter-spacing:0;word-spacing:0;fill:#000;fill-opacity:1;stroke:none;stroke-width:1px;stroke-linecap:butt;stroke-linejoin:miter;stroke-opacity:1"><flowRegion id="flowRegion5318-62-6"><rect id="rect5320-6-2" width="140" height="160" x="380" y="269.505"/></flowRegion><flowPara id="flowPara5322-18-6" style="font-style:normal;font-variant:normal;font-weight:700;font-stretch:normal;font-size:40px;font-family:'Myriad Pro';-inkscape-font-specification:'Myriad Pro Bold'">D<flowSpan style="font-style:normal;font-variant:normal;font-weight:400;font-stretch:normal;font-size:32.5px;font-family:'Myriad Pro';-inkscape-font-specification:'Myriad Pro';baseline-shift:sub" id="flowSpan5324-7-1">2</flowSpan></flowPara></flowRoot></g><g id="g6556" transform="translate(470,-651.42859)"><circle style="display:inline;fill:#8cd499;fill-opacity:1;stroke:none;stroke-width:2.5;stroke-miterlimit:4;stroke-dasharray:none;stroke-dashoffset:0;stroke-opacity:1" id="path7355-6-6-92" cx="86.11" cy="750.689" r="50"/><flowRoot id="flowRoot5316-0-02" transform="translate(-316.3963,459.51274)" xml:space="preserve" style="font-style:normal;font-weight:400;font-size:40px;line-height:125%;font-family:sans-serif;letter-spacing:0;word-spacing:0;fill:#000;fill-opacity:1;stroke:none;stroke-width:1px;stroke-linecap:butt;stroke-linejoin:miter;stroke-opacity:1"><flowRegion id="flowRegion5318-62-37"><rect id="rect5320-6-5" width="140" height="160" x="380" y="269.505"/></flowRegion><flowPara id="flowPara5322-18-9" style="font-style:normal;font-variant:normal;font-weight:700;font-stretch:normal;font-size:40px;font-family:'Myriad Pro';-inkscape-font-specification:'Myriad Pro Bold'">D<flowSpan style="font-style:normal;font-variant:normal;font-weight:400;font-stretch:normal;font-size:32.5px;font-family:'Myriad Pro';-inkscape-font-specification:'Myriad Pro';baseline-shift:sub" id="flowSpan5324-7-22">3</flowSpan></flowPara></flowRoot></g><path id="path8629-6-28-0-1-2-0-3-3-8-10-7" d="m 304.64245,149.97432 66.82991,64.99999" style="display:inline;fill:none;fill-rule:evenodd;stroke:#555;stroke-width:2;stroke-linecap:butt;stroke-linejoin:miter;stroke-miterlimit:4;stroke-dasharray:none;stroke-opacity:1;marker-end:url(#marker5157-4-0-2-3)"/><path id="path8629-6-28-0-1-2-0-3-3-8-10-7-5" d="m 530.67415,149.02629 c -17.0693,18.59874 -38.4092,40.61396 -65,66.8299" style="display:inline;fill:none;fill-rule:evenodd;stroke:#555;stroke-width:2;stroke-linecap:butt;stroke-linejoin:miter;stroke-miterlimit:4;stroke-dasharray:none;stroke-opacity:1;marker-end:url(#marker5157-4-0-2-3-5)"/><path id="path8629-6-28-0-1-2-0-3-3-8-10-7-5-9" d="M 416.26457,152.32522 416.086,179.33369" style="display:inline;fill:none;fill-rule:evenodd;stroke:#555;stroke-width:2;stroke-linecap:butt;stroke-linejoin:miter;stroke-miterlimit:4;stroke-dasharray:none;stroke-opacity:1;marker-end:url(#marker5157-4-0-2-3-5-6)"/><path id="path8629-6-28-0-1-2-0-3-3-8-10-7-5-0" d="m 462.92245,286.53929 c 76.72102,15.7814 170.23578,-77.32471 130.11789,-139.90473" style="display:inline;fill:none;fill-rule:evenodd;stroke:#555;stroke-width:2;stroke-linecap:butt;stroke-linejoin:miter;stroke-miterlimit:4;stroke-dasharray:4,2;stroke-dashoffset:0;stroke-opacity:1;marker-end:url(#marker5157-4-0-2-3-5-1)"/><flowRoot style="font-style:normal;font-weight:400;font-size:40px;line-height:125%;font-family:sans-serif;letter-spacing:0;word-spacing:0;fill:#000;fill-opacity:1;stroke:none;stroke-width:1px;stroke-linecap:butt;stroke-linejoin:miter;stroke-opacity:1" id="flowRoot11756" transform="translate(-192.05027,-30.736373)" xml:space="preserve"><flowRegion id="flowRegion11758"><rect id="rect11760" width="170" height="54.286" x="763.571" y="281.425"/></flowRegion><flowPara style="font-size:15px" id="flowPara11762">RETURN</flowPara></flowRoot></g></svg>